<svg width="1952" height="1458" viewBox="0 0 1952 1458" fill="none" xmlns="http://www.w3.org/2000/svg">
<g opacity="0.5" filter="url(#filter0_f_204_4)">
<path d="M1652 373.742V1084.26C1652 1124.99 1619.02 1158 1578.33 1158H373.665C336.991 1158 306.575 1131.17 300.947 1096.04C300.325 1092.21 300 1088.27 300 1084.26V373.742C300 333.011 332.981 300 373.665 300H1578.33C1582.34 300 1586.27 300.316 1590.1 300.939C1625.18 306.581 1652 337.024 1652 373.742Z" fill="#CACACA"/>
</g>
<mask id="mask0_204_4" style="mask-type:alpha" maskUnits="userSpaceOnUse" x="124" y="153" width="1400" height="888">
<path d="M1524 229.291V964.359C1524 1006.5 1489.85 1040.65 1447.72 1040.65H200.281C162.304 1040.65 130.808 1012.89 124.981 976.549C124.337 972.584 124 968.511 124 964.359V229.291C124 187.151 158.151 153 200.281 153H1447.72C1451.87 153 1455.93 153.327 1459.9 153.971C1496.23 159.808 1524 191.304 1524 229.291Z" fill="url(#paint0_linear_204_4)"/>
</mask>
<g mask="url(#mask0_204_4)">
<path d="M1554 -82H87V1385H1554V-82Z" fill="white"/>
<path d="M1554 -82H87V1385H1554V-82Z" fill="#1BC47D" fill-opacity="0.3"/>
<g filter="url(#filter1_f_204_4)">
<path d="M1531 358H221V1154H1531V358Z" fill="#00C5DF"/>
</g>
<g filter="url(#filter2_f_204_4)">
<ellipse cx="1104.5" cy="945" rx="689.5" ry="458" fill="#907CFF"/>
</g>
<path style="mix-blend-mode:screen" opacity="0.1" d="M1488.66 597C1267.93 597 1089 775.937 1089 996.665C1089 1217.39 1267.93 1396.33 1488.66 1396.33C1709.39 1396.33 1888.32 1217.39 1888.32 996.665C1888.32 775.937 1709.39 597 1488.66 597ZM1488.66 1225.96C1362.03 1225.96 1259.37 1123.3 1259.37 996.665C1259.37 870.03 1362.03 767.372 1488.66 767.372C1615.29 767.372 1717.95 870.03 1717.95 996.665C1717.95 1123.3 1615.29 1225.96 1488.66 1225.96Z" fill="white"/>
<path style="mix-blend-mode:screen" opacity="0.1" d="M102.5 335C-58.4905 335 -189 465.51 -189 626.5C-189 787.49 -58.4905 918 102.5 918C263.49 918 394 787.49 394 626.5C394 465.51 263.49 335 102.5 335ZM102.5 793.737C10.1372 793.737 -64.7374 718.863 -64.7374 626.5C-64.7374 534.137 10.1372 459.263 102.5 459.263C194.863 459.263 269.737 534.137 269.737 626.5C269.737 718.863 194.863 793.737 102.5 793.737Z" fill="white"/>
<path style="mix-blend-mode:screen" opacity="0.1" d="M1506.5 372C1419.52 372 1349 442.515 1349 529.5C1349 616.485 1419.52 687 1506.5 687C1593.48 687 1664 616.485 1664 529.5C1664 442.515 1593.48 372 1506.5 372ZM1506.5 619.86C1456.6 619.86 1416.14 579.404 1416.14 529.5C1416.14 479.596 1456.6 439.14 1506.5 439.14C1556.4 439.14 1596.86 479.596 1596.86 529.5C1596.86 579.404 1556.4 619.86 1506.5 619.86Z" fill="white" fill-opacity="0.8"/>
<path style="mix-blend-mode:screen" opacity="0.1" d="M885.5 -166C754.333 -166 648 -59.6668 648 71.5C648 202.667 754.333 309 885.5 309C1016.67 309 1123 202.667 1123 71.5C1123 -59.6668 1016.67 -166 885.5 -166ZM885.5 207.757C810.247 207.757 749.243 146.753 749.243 71.5C749.243 -3.75305 810.247 -64.7574 885.5 -64.7574C960.753 -64.7574 1021.76 -3.75305 1021.76 71.5C1021.76 146.753 960.753 207.757 885.5 207.757Z" fill="white"/>
</g>
<path d="M226.752 333.392V279.752H249.432C253.128 279.752 256.296 280.376 258.936 281.624C261.576 282.872 263.592 284.672 264.984 287.024C266.376 289.328 267.072 292.136 267.072 295.448C267.072 297.8 266.424 300.056 265.128 302.216C263.832 304.328 261.696 306.104 258.72 307.544V302.072C261.552 303.176 263.736 304.496 265.272 306.032C266.808 307.568 267.864 309.248 268.44 311.072C269.016 312.848 269.304 314.72 269.304 316.688C269.304 321.968 267.552 326.072 264.048 329C260.544 331.928 255.672 333.392 249.432 333.392H226.752ZM237.912 323.672H250.728C252.984 323.672 254.784 323.024 256.128 321.728C257.472 320.432 258.144 318.752 258.144 316.688C258.144 314.576 257.472 312.872 256.128 311.576C254.784 310.28 252.984 309.632 250.728 309.632H237.912V323.672ZM237.912 299.912H250.224C251.952 299.912 253.32 299.432 254.328 298.472C255.384 297.464 255.912 296.144 255.912 294.512C255.912 292.88 255.384 291.584 254.328 290.624C253.32 289.616 251.952 289.112 250.224 289.112H237.912V299.912Z" fill="white"/>
<path d="M286.903 333.392L305.047 279.752H319.879L338.023 333.392H325.855L322.255 322.448H302.599L298.999 333.392H286.903ZM305.695 312.728H319.159L310.951 287.384H313.975L305.695 312.728Z" fill="white"/>
<path d="M357.997 333.392V279.752H366.565L395.365 317.696L390.757 318.776V279.752H401.917V333.392H393.277L364.981 295.16L369.157 294.08V333.392H357.997Z" fill="white"/>
<path d="M425.835 333.392V279.752H436.995V306.608L433.899 305.528L455.355 279.752H469.323L448.083 305.384L448.731 297.464L469.755 333.392H456.723L443.619 310.712L436.995 318.704V333.392H425.835Z" fill="white"/>
<defs>
<filter id="filter0_f_204_4" x="0" y="0" width="1952" height="1458" filterUnits="userSpaceOnUse" color-interpolation-filters="sRGB">
<feFlood flood-opacity="0" result="BackgroundImageFix"/>
<feBlend mode="normal" in="SourceGraphic" in2="BackgroundImageFix" result="shape"/>
<feGaussianBlur stdDeviation="150" result="effect1_foregroundBlur_204_4"/>
</filter>
<filter id="filter1_f_204_4" x="-79" y="58" width="1910" height="1396" filterUnits="userSpaceOnUse" color-interpolation-filters="sRGB">
<feFlood flood-opacity="0" result="BackgroundImageFix"/>
<feBlend mode="normal" in="SourceGraphic" in2="BackgroundImageFix" result="shape"/>
<feGaussianBlur stdDeviation="150" result="effect1_foregroundBlur_204_4"/>
</filter>
<filter id="filter2_f_204_4" x="-45" y="27" width="2299" height="1836" filterUnits="userSpaceOnUse" color-interpolation-filters="sRGB">
<feFlood flood-opacity="0" result="BackgroundImageFix"/>
<feBlend mode="normal" in="SourceGraphic" in2="BackgroundImageFix" result="shape"/>
<feGaussianBlur stdDeviation="230" result="effect1_foregroundBlur_204_4"/>
</filter>
<linearGradient id="paint0_linear_204_4" x1="299" y1="65.5" x2="1543.5" y2="1057" gradientUnits="userSpaceOnUse">
<stop stop-color="#2D80C4"/>
<stop offset="1" stop-color="#C42DBE"/>
</linearGradient>
</defs>
</svg>
