<svg width="1952" height="1458" viewBox="0 0 1952 1458" fill="none" xmlns="http://www.w3.org/2000/svg">
<g opacity="0.5" filter="url(#filter0_f_1_31949)">
<path d="M1652 373.742V1084.26C1652 1124.99 1619.02 1158 1578.33 1158H373.665C336.991 1158 306.575 1131.17 300.947 1096.04C300.325 1092.21 300 1088.27 300 1084.26V373.742C300 333.011 332.981 300 373.665 300H1578.33C1582.34 300 1586.27 300.316 1590.1 300.939C1625.18 306.581 1652 337.024 1652 373.742Z" fill="#77939A"/>
</g>
<mask id="mask0_1_31949" style="mask-type:alpha" maskUnits="userSpaceOnUse" x="124" y="134" width="1400" height="888">
<path d="M1524 210.291V945.359C1524 987.498 1489.85 1021.65 1447.72 1021.65H200.281C162.304 1021.65 130.808 993.89 124.981 957.549C124.337 953.584 124 949.511 124 945.359V210.291C124 168.151 158.151 134 200.281 134H1447.72C1451.87 134 1455.93 134.327 1459.9 134.971C1496.23 140.808 1524 172.304 1524 210.291Z" fill="url(#paint0_linear_1_31949)"/>
</mask>
<g mask="url(#mask0_1_31949)">
<path d="M1524 134H124V1022H1524V134Z" fill="white"/>
<path d="M1524 134H124V1022H1524V134Z" fill="#F060BF" fill-opacity="0.5"/>
<mask id="mask1_1_31949" style="mask-type:luminance" maskUnits="userSpaceOnUse" x="124" y="134" width="1400" height="888">
<path d="M1524 134H124V1022H1524V134Z" fill="white"/>
</mask>
<g mask="url(#mask1_1_31949)">
<g filter="url(#filter1_f_1_31949)">
<path d="M1643 268.865H799.5V785.57H1643V268.865Z" fill="#5BA1D0"/>
<g filter="url(#filter2_f_1_31949)">
<path d="M831.875 111H169C115.981 111 73 153.981 73 207V564.45C73 617.469 115.981 660.45 169 660.45H831.875C884.894 660.45 927.875 617.469 927.875 564.45V207C927.875 153.981 884.894 111 831.875 111Z" fill="#50BAC8"/>
</g>
<g filter="url(#filter3_f_1_31949)">
<path d="M1660.5 396.825H749.125C696.106 396.825 653.125 439.806 653.125 492.825V948.51C653.125 1001.53 696.106 1044.51 749.125 1044.51H1660.5C1713.52 1044.51 1756.5 1001.53 1756.5 948.51V492.825C1756.5 439.806 1713.52 396.825 1660.5 396.825Z" fill="#50BAC8"/>
</g>
</g>
</g>
<path style="mix-blend-mode:screen" opacity="0.1" d="M-63.5001 290C-280.823 290 -457 466.177 -457 683.5C-457 900.823 -280.823 1077 -63.5001 1077C153.823 1077 330 900.823 330 683.5C330 466.177 153.823 290 -63.5001 290ZM-63.5001 909.256C-188.182 909.256 -289.256 808.182 -289.256 683.5C-289.256 558.818 -188.182 457.744 -63.5001 457.744C61.1818 457.744 162.256 558.818 162.256 683.5C162.256 808.182 61.1818 909.256 -63.5001 909.256Z" fill="white"/>
<path d="M1449.18 937.817C1449.41 936.389 1448.44 935.044 1447.01 934.812C1445.59 934.581 1444.24 935.55 1444.01 936.978C1443.78 938.405 1444.75 939.75 1446.17 939.982C1447.6 940.214 1448.95 939.244 1449.18 937.817Z" fill="white"/>
<path d="M1427.75 937.818C1427.99 936.39 1427.02 935.045 1425.59 934.814C1424.16 934.582 1422.82 935.551 1422.58 936.979C1422.35 938.406 1423.32 939.752 1424.75 939.983C1426.18 940.215 1427.52 939.246 1427.75 937.818Z" fill="white"/>
<path d="M1406.33 937.816C1406.56 936.388 1405.59 935.043 1404.16 934.811C1402.74 934.579 1401.39 935.549 1401.16 936.976C1400.93 938.404 1401.9 939.749 1403.33 939.981C1404.75 940.213 1406.1 939.243 1406.33 937.816Z" fill="white"/>
<path d="M1446.53 919.262C1447.98 919.262 1449.15 918.09 1449.15 916.644C1449.15 915.198 1447.98 914.025 1446.53 914.025C1445.09 914.025 1443.92 915.198 1443.92 916.644C1443.92 918.09 1445.09 919.262 1446.53 919.262Z" fill="white"/>
<path d="M1425.11 919.262C1426.55 919.262 1427.73 918.09 1427.73 916.644C1427.73 915.198 1426.55 914.025 1425.11 914.025C1423.66 914.025 1422.49 915.198 1422.49 916.644C1422.49 918.09 1423.66 919.262 1425.11 919.262Z" fill="white"/>
<path d="M1403.69 919.262C1405.13 919.262 1406.3 918.09 1406.3 916.644C1406.3 915.198 1405.13 914.025 1403.69 914.025C1402.24 914.025 1401.07 915.198 1401.07 916.644C1401.07 918.09 1402.24 919.262 1403.69 919.262Z" fill="white"/>
<path d="M1446.53 898.549C1447.98 898.549 1449.15 897.376 1449.15 895.93C1449.15 894.484 1447.98 893.311 1446.53 893.311C1445.09 893.311 1443.92 894.484 1443.92 895.93C1443.92 897.376 1445.09 898.549 1446.53 898.549Z" fill="white"/>
<path d="M1425.11 898.549C1426.55 898.549 1427.73 897.376 1427.73 895.93C1427.73 894.484 1426.55 893.311 1425.11 893.311C1423.66 893.311 1422.49 894.484 1422.49 895.93C1422.49 897.376 1423.66 898.549 1425.11 898.549Z" fill="white"/>
<path d="M1403.69 898.549C1405.13 898.549 1406.3 897.376 1406.3 895.93C1406.3 894.484 1405.13 893.311 1403.69 893.311C1402.24 893.311 1401.07 894.484 1401.07 895.93C1401.07 897.376 1402.24 898.549 1403.69 898.549Z" fill="white"/>
<path d="M1446.53 877.838C1447.98 877.838 1449.15 876.666 1449.15 875.219C1449.15 873.773 1447.98 872.601 1446.53 872.601C1445.09 872.601 1443.92 873.773 1443.92 875.219C1443.92 876.666 1445.09 877.838 1446.53 877.838Z" fill="white"/>
<path d="M1425.11 877.838C1426.55 877.838 1427.73 876.666 1427.73 875.219C1427.73 873.773 1426.55 872.601 1425.11 872.601C1423.66 872.601 1422.49 873.773 1422.49 875.219C1422.49 876.666 1423.66 877.838 1425.11 877.838Z" fill="white"/>
<path d="M1403.69 877.838C1405.13 877.838 1406.3 876.666 1406.3 875.219C1406.3 873.773 1405.13 872.601 1403.69 872.601C1402.24 872.601 1401.07 873.773 1401.07 875.219C1401.07 876.666 1402.24 877.838 1403.69 877.838Z" fill="white"/>
<path d="M1446.53 857.128C1447.98 857.128 1449.15 855.955 1449.15 854.509C1449.15 853.063 1447.98 851.89 1446.53 851.89C1445.09 851.89 1443.92 853.063 1443.92 854.509C1443.92 855.955 1445.09 857.128 1446.53 857.128Z" fill="white"/>
<path d="M1425.11 857.128C1426.55 857.128 1427.73 855.955 1427.73 854.509C1427.73 853.063 1426.55 851.89 1425.11 851.89C1423.66 851.89 1422.49 853.063 1422.49 854.509C1422.49 855.955 1423.66 857.128 1425.11 857.128Z" fill="white"/>
<path d="M1403.69 857.128C1405.13 857.128 1406.3 855.955 1406.3 854.509C1406.3 853.063 1405.13 851.89 1403.69 851.89C1402.24 851.89 1401.07 853.063 1401.07 854.509C1401.07 855.955 1402.24 857.128 1403.69 857.128Z" fill="white"/>
<path d="M1446.53 836.417C1447.98 836.417 1449.15 835.245 1449.15 833.799C1449.15 832.353 1447.98 831.18 1446.53 831.18C1445.09 831.18 1443.92 832.353 1443.92 833.799C1443.92 835.245 1445.09 836.417 1446.53 836.417Z" fill="white"/>
<path d="M1425.11 836.417C1426.55 836.417 1427.73 835.245 1427.73 833.799C1427.73 832.353 1426.55 831.18 1425.11 831.18C1423.66 831.18 1422.49 832.353 1422.49 833.799C1422.49 835.245 1423.66 836.417 1425.11 836.417Z" fill="white"/>
<path d="M1403.69 836.417C1405.13 836.417 1406.3 835.245 1406.3 833.799C1406.3 832.353 1405.13 831.18 1403.69 831.18C1402.24 831.18 1401.07 832.353 1401.07 833.799C1401.07 835.245 1402.24 836.417 1403.69 836.417Z" fill="white"/>
<path d="M1446.53 815.707C1447.98 815.707 1449.15 814.535 1449.15 813.088C1449.15 811.642 1447.98 810.47 1446.53 810.47C1445.09 810.47 1443.92 811.642 1443.92 813.088C1443.92 814.535 1445.09 815.707 1446.53 815.707Z" fill="white"/>
<path d="M1425.11 815.707C1426.55 815.707 1427.73 814.535 1427.73 813.088C1427.73 811.642 1426.55 810.47 1425.11 810.47C1423.66 810.47 1422.49 811.642 1422.49 813.088C1422.49 814.535 1423.66 815.707 1425.11 815.707Z" fill="white"/>
<path d="M1403.69 815.707C1405.13 815.707 1406.3 814.535 1406.3 813.088C1406.3 811.642 1405.13 810.47 1403.69 810.47C1402.24 810.47 1401.07 811.642 1401.07 813.088C1401.07 814.535 1402.24 815.707 1403.69 815.707Z" fill="white"/>
<path d="M1446.53 794.993C1447.98 794.993 1449.15 793.82 1449.15 792.374C1449.15 790.928 1447.98 789.756 1446.53 789.756C1445.09 789.756 1443.92 790.928 1443.92 792.374C1443.92 793.82 1445.09 794.993 1446.53 794.993Z" fill="white"/>
<path d="M1425.11 794.993C1426.55 794.993 1427.73 793.82 1427.73 792.374C1427.73 790.928 1426.55 789.756 1425.11 789.756C1423.66 789.756 1422.49 790.928 1422.49 792.374C1422.49 793.82 1423.66 794.993 1425.11 794.993Z" fill="white"/>
<path d="M1403.69 794.993C1405.13 794.993 1406.3 793.82 1406.3 792.374C1406.3 790.928 1405.13 789.756 1403.69 789.756C1402.24 789.756 1401.07 790.928 1401.07 792.374C1401.07 793.82 1402.24 794.993 1403.69 794.993Z" fill="white"/>
<path d="M1446.53 774.282C1447.98 774.282 1449.15 773.11 1449.15 771.664C1449.15 770.218 1447.98 769.045 1446.53 769.045C1445.09 769.045 1443.92 770.218 1443.92 771.664C1443.92 773.11 1445.09 774.282 1446.53 774.282Z" fill="white"/>
<path d="M1425.11 774.282C1426.55 774.282 1427.73 773.11 1427.73 771.664C1427.73 770.218 1426.55 769.045 1425.11 769.045C1423.66 769.045 1422.49 770.218 1422.49 771.664C1422.49 773.11 1423.66 774.282 1425.11 774.282Z" fill="white"/>
<path d="M1403.69 774.282C1405.13 774.282 1406.3 773.11 1406.3 771.664C1406.3 770.218 1405.13 769.045 1403.69 769.045C1402.24 769.045 1401.07 770.218 1401.07 771.664C1401.07 773.11 1402.24 774.282 1403.69 774.282Z" fill="white"/>
<path d="M1446.53 753.572C1447.98 753.572 1449.15 752.4 1449.15 750.953C1449.15 749.507 1447.98 748.335 1446.53 748.335C1445.09 748.335 1443.92 749.507 1443.92 750.953C1443.92 752.4 1445.09 753.572 1446.53 753.572Z" fill="white"/>
<path d="M1425.11 753.572C1426.55 753.572 1427.73 752.4 1427.73 750.953C1427.73 749.507 1426.55 748.335 1425.11 748.335C1423.66 748.335 1422.49 749.507 1422.49 750.953C1422.49 752.4 1423.66 753.572 1425.11 753.572Z" fill="white"/>
<path d="M1403.69 753.572C1405.13 753.572 1406.3 752.4 1406.3 750.953C1406.3 749.507 1405.13 748.335 1403.69 748.335C1402.24 748.335 1401.07 749.507 1401.07 750.953C1401.07 752.4 1402.24 753.572 1403.69 753.572Z" fill="white"/>
<path d="M1446.53 732.862C1447.98 732.862 1449.15 731.689 1449.15 730.243C1449.15 728.797 1447.98 727.624 1446.53 727.624C1445.09 727.624 1443.92 728.797 1443.92 730.243C1443.92 731.689 1445.09 732.862 1446.53 732.862Z" fill="white"/>
<path d="M1425.11 732.862C1426.55 732.862 1427.73 731.689 1427.73 730.243C1427.73 728.797 1426.55 727.624 1425.11 727.624C1423.66 727.624 1422.49 728.797 1422.49 730.243C1422.49 731.689 1423.66 732.862 1425.11 732.862Z" fill="white"/>
<path d="M1403.69 732.862C1405.13 732.862 1406.3 731.689 1406.3 730.243C1406.3 728.797 1405.13 727.624 1403.69 727.624C1402.24 727.624 1401.07 728.797 1401.07 730.243C1401.07 731.689 1402.24 732.862 1403.69 732.862Z" fill="white"/>
<path d="M1446.53 712.151C1447.98 712.151 1449.15 710.979 1449.15 709.532C1449.15 708.086 1447.98 706.914 1446.53 706.914C1445.09 706.914 1443.92 708.086 1443.92 709.532C1443.92 710.979 1445.09 712.151 1446.53 712.151Z" fill="white"/>
<path d="M1425.11 712.151C1426.55 712.151 1427.73 710.979 1427.73 709.532C1427.73 708.086 1426.55 706.914 1425.11 706.914C1423.66 706.914 1422.49 708.086 1422.49 709.532C1422.49 710.979 1423.66 712.151 1425.11 712.151Z" fill="white"/>
<path d="M1403.69 712.151C1405.13 712.151 1406.3 710.979 1406.3 709.532C1406.3 708.086 1405.13 706.914 1403.69 706.914C1402.24 706.914 1401.07 708.086 1401.07 709.532C1401.07 710.979 1402.24 712.151 1403.69 712.151Z" fill="white"/>
<path d="M1446.53 691.441C1447.98 691.441 1449.15 690.268 1449.15 688.822C1449.15 687.376 1447.98 686.204 1446.53 686.204C1445.09 686.204 1443.92 687.376 1443.92 688.822C1443.92 690.268 1445.09 691.441 1446.53 691.441Z" fill="white"/>
<path d="M1425.11 691.441C1426.55 691.441 1427.73 690.268 1427.73 688.822C1427.73 687.376 1426.55 686.204 1425.11 686.204C1423.66 686.204 1422.49 687.376 1422.49 688.822C1422.49 690.268 1423.66 691.441 1425.11 691.441Z" fill="white"/>
<path d="M1403.69 691.441C1405.13 691.441 1406.3 690.268 1406.3 688.822C1406.3 687.376 1405.13 686.204 1403.69 686.204C1402.24 686.204 1401.07 687.376 1401.07 688.822C1401.07 690.268 1402.24 691.441 1403.69 691.441Z" fill="white"/>
<path d="M1447.54 670.531C1448.87 669.977 1449.51 668.445 1448.95 667.109C1448.4 665.773 1446.87 665.139 1445.53 665.692C1444.2 666.245 1443.56 667.777 1444.12 669.113C1444.67 670.45 1446.2 671.084 1447.54 670.531Z" fill="white"/>
<path d="M1426.11 670.529C1427.45 669.975 1428.08 668.443 1427.53 667.107C1426.97 665.771 1425.44 665.137 1424.11 665.69C1422.77 666.243 1422.14 667.775 1422.69 669.111C1423.24 670.448 1424.77 671.082 1426.11 670.529Z" fill="white"/>
<path d="M1404.69 670.529C1406.02 669.975 1406.66 668.444 1406.1 667.107C1405.55 665.771 1404.02 665.137 1402.68 665.69C1401.35 666.244 1400.71 667.776 1401.26 669.112C1401.82 670.448 1403.35 671.082 1404.69 670.529Z" fill="white"/>
</g>
<path d="M226.752 307V253.36H249.432C253.128 253.36 256.296 253.984 258.936 255.232C261.576 256.48 263.592 258.28 264.984 260.632C266.376 262.936 267.072 265.744 267.072 269.056C267.072 271.408 266.424 273.664 265.128 275.824C263.832 277.936 261.696 279.712 258.72 281.152V275.68C261.552 276.784 263.736 278.104 265.272 279.64C266.808 281.176 267.864 282.856 268.44 284.68C269.016 286.456 269.304 288.328 269.304 290.296C269.304 295.576 267.552 299.68 264.048 302.608C260.544 305.536 255.672 307 249.432 307H226.752ZM237.912 297.28H250.728C252.984 297.28 254.784 296.632 256.128 295.336C257.472 294.04 258.144 292.36 258.144 290.296C258.144 288.184 257.472 286.48 256.128 285.184C254.784 283.888 252.984 283.24 250.728 283.24H237.912V297.28ZM237.912 273.52H250.224C251.952 273.52 253.32 273.04 254.328 272.08C255.384 271.072 255.912 269.752 255.912 268.12C255.912 266.488 255.384 265.192 254.328 264.232C253.32 263.224 251.952 262.72 250.224 262.72H237.912V273.52Z" fill="white"/>
<path d="M286.903 307L305.047 253.36H319.879L338.023 307H325.855L322.255 296.056H302.599L298.999 307H286.903ZM305.695 286.336H319.159L310.951 260.992H313.975L305.695 286.336Z" fill="white"/>
<path d="M357.997 307V253.36H366.565L395.365 291.304L390.757 292.384V253.36H401.917V307H393.277L364.981 268.768L369.157 267.688V307H357.997Z" fill="white"/>
<path d="M425.835 307V253.36H436.995V280.216L433.899 279.136L455.355 253.36H469.323L448.083 278.992L448.731 271.072L469.755 307H456.723L443.619 284.32L436.995 292.312V307H425.835Z" fill="white"/>
<defs>
<filter id="filter0_f_1_31949" x="0" y="0" width="1952" height="1458" filterUnits="userSpaceOnUse" color-interpolation-filters="sRGB">
<feFlood flood-opacity="0" result="BackgroundImageFix"/>
<feBlend mode="normal" in="SourceGraphic" in2="BackgroundImageFix" result="shape"/>
<feGaussianBlur stdDeviation="150" result="effect1_foregroundBlur_1_31949"/>
</filter>
<filter id="filter1_f_1_31949" x="-177" y="-139" width="2183.5" height="1433.51" filterUnits="userSpaceOnUse" color-interpolation-filters="sRGB">
<feFlood flood-opacity="0" result="BackgroundImageFix"/>
<feBlend mode="normal" in="SourceGraphic" in2="BackgroundImageFix" result="shape"/>
<feGaussianBlur stdDeviation="125" result="effect1_foregroundBlur_1_31949"/>
</filter>
<filter id="filter2_f_1_31949" x="-227" y="-189" width="1454.88" height="1149.45" filterUnits="userSpaceOnUse" color-interpolation-filters="sRGB">
<feFlood flood-opacity="0" result="BackgroundImageFix"/>
<feBlend mode="normal" in="SourceGraphic" in2="BackgroundImageFix" result="shape"/>
<feGaussianBlur stdDeviation="150" result="effect1_foregroundBlur_1_31949"/>
</filter>
<filter id="filter3_f_1_31949" x="353.125" y="96.8252" width="1703.38" height="1247.69" filterUnits="userSpaceOnUse" color-interpolation-filters="sRGB">
<feFlood flood-opacity="0" result="BackgroundImageFix"/>
<feBlend mode="normal" in="SourceGraphic" in2="BackgroundImageFix" result="shape"/>
<feGaussianBlur stdDeviation="150" result="effect1_foregroundBlur_1_31949"/>
</filter>
<linearGradient id="paint0_linear_1_31949" x1="299" y1="46.5" x2="1543.5" y2="1038" gradientUnits="userSpaceOnUse">
<stop stop-color="#2D80C4"/>
<stop offset="1" stop-color="#C42DBE"/>
</linearGradient>
</defs>
</svg>
