<svg width="900" height="824" viewBox="0 0 900 824" fill="none" xmlns="http://www.w3.org/2000/svg">
<circle cx="451.5" cy="400.908" r="33.121" stroke="white" stroke-opacity="0.2" stroke-width="0.8"/>
<circle cx="451.5" cy="400.908" r="70.1338" stroke="white" stroke-opacity="0.2" stroke-width="0.8"/>
<circle cx="451.5" cy="400.908" r="117.622" stroke="white" stroke-opacity="0.2" stroke-width="0.8"/>
<circle cx="451.5" cy="400.908" r="158.476" stroke="white" stroke-opacity="0.2" stroke-width="0.8"/>
<circle cx="451.5" cy="400.908" r="198.631" stroke="white" stroke-opacity="0.2" stroke-width="0.8"/>
<g filter="url(#filter0_f_6704_16)">
<circle cx="325.403" cy="325" r="125" fill="#35E97E" fill-opacity="0.4"/>
</g>
<g filter="url(#filter1_f_6704_16)">
<circle cx="574.034" cy="498.816" r="125" fill="#139E8D" fill-opacity="0.4"/>
</g>
<rect width="392.073" height="212.611" rx="12" transform="matrix(0.872496 0.488621 -0.707107 0.707107 336.339 260.463)" fill="url(#paint0_linear_6704_16)"/>
<path d="M335.572 288.516C335.858 288.742 336.048 289.017 336.141 289.343C336.242 289.673 336.241 290.011 336.138 290.357C336.043 290.708 335.848 291.031 335.554 291.325C335.183 291.696 334.73 291.967 334.195 292.138C333.668 292.301 333.092 292.345 332.467 292.268C331.858 292.19 331.251 291.981 330.646 291.642L327.275 289.754L334.599 282.43L337.84 284.246C338.454 284.589 338.893 284.966 339.157 285.376C339.428 285.779 339.531 286.182 339.467 286.583C339.403 286.984 339.196 287.36 338.846 287.71C338.411 288.144 337.904 288.423 337.322 288.545C336.757 288.666 336.174 288.656 335.572 288.516ZM332.616 286.254L334.6 287.365C335.153 287.675 335.686 287.809 336.198 287.768C336.711 287.728 337.153 287.522 337.524 287.15C337.895 286.779 338.035 286.404 337.943 286.024C337.85 285.645 337.519 285.295 336.948 284.976L334.991 283.879L332.616 286.254ZM331.33 290.796C331.918 291.125 332.488 291.269 333.041 291.229C333.593 291.189 334.069 290.969 334.469 290.57C334.875 290.164 335.021 289.748 334.906 289.323C334.799 288.891 334.455 288.513 333.876 288.189L331.828 287.042L329.243 289.627L331.33 290.796ZM337.686 291.06C338.274 290.472 338.936 290.039 339.671 289.762C340.413 289.479 341.162 289.357 341.917 289.397C342.681 289.443 343.378 289.642 344.009 289.995C344.631 290.344 345.063 290.755 345.304 291.229C345.545 291.702 345.613 292.167 345.509 292.622L346.559 291.571L347.752 292.239L341.994 297.997L340.801 297.329L341.873 296.257C341.304 296.463 340.673 296.547 339.982 296.51C339.307 296.47 338.663 296.279 338.049 295.935C337.418 295.582 336.974 295.136 336.716 294.599C336.458 294.061 336.41 293.482 336.571 292.862C336.733 292.242 337.104 291.641 337.686 291.06ZM343.691 294.44C344.125 294.005 344.395 293.567 344.502 293.123C344.608 292.68 344.559 292.27 344.356 291.894C344.168 291.516 343.853 291.203 343.412 290.956C342.972 290.709 342.486 290.568 341.954 290.533C341.423 290.498 340.889 290.581 340.35 290.782C339.812 290.983 339.326 291.301 338.891 291.735C338.45 292.177 338.173 292.622 338.06 293.073C337.954 293.516 337.994 293.927 338.182 294.305C338.377 294.677 338.695 294.986 339.136 295.233C339.577 295.479 340.063 295.621 340.594 295.656C341.141 295.689 341.683 295.605 342.221 295.403C342.767 295.195 343.257 294.874 343.691 294.44ZM352.943 291.999L345.168 299.775L343.988 299.114L351.764 291.338L352.943 291.999ZM349.638 297.754C350.226 297.165 350.888 296.733 351.623 296.456C352.366 296.172 353.114 296.051 353.869 296.091C354.633 296.136 355.33 296.336 355.961 296.689C356.584 297.037 357.015 297.449 357.256 297.922C357.497 298.396 357.566 298.86 357.461 299.315L358.512 298.265L359.705 298.933L353.946 304.691L352.754 304.023L353.825 302.951C353.256 303.157 352.626 303.241 351.935 303.203C351.259 303.164 350.615 302.973 350.001 302.629C349.37 302.276 348.926 301.83 348.668 301.292C348.41 300.754 348.362 300.176 348.524 299.556C348.685 298.936 349.056 298.335 349.638 297.754ZM355.643 301.133C356.078 300.699 356.348 300.26 356.454 299.817C356.56 299.374 356.511 298.964 356.308 298.588C356.12 298.209 355.806 297.897 355.365 297.65C354.924 297.403 354.438 297.262 353.907 297.227C353.376 297.191 352.841 297.274 352.303 297.476C351.764 297.677 351.278 297.995 350.844 298.429C350.402 298.87 350.125 299.316 350.012 299.766C349.906 300.21 349.947 300.62 350.135 300.999C350.329 301.37 350.647 301.679 351.088 301.926C351.529 302.173 352.015 302.314 352.546 302.349C353.093 302.382 353.635 302.298 354.174 302.097C354.719 301.889 355.209 301.568 355.643 301.133ZM365.265 301.883C366.13 302.367 366.616 302.973 366.725 303.7C366.84 304.42 366.499 305.18 365.7 305.979L362.306 309.372L361.139 308.719L364.397 305.462C364.971 304.887 365.232 304.35 365.179 303.851C365.132 303.344 364.802 302.919 364.189 302.575C363.566 302.226 362.912 302.106 362.225 302.213C361.547 302.325 360.906 302.682 360.304 303.284L357.12 306.468L355.94 305.807L361.698 300.049L362.878 300.71L362.059 301.53C362.586 301.366 363.129 301.315 363.688 301.377C364.255 301.443 364.781 301.612 365.265 301.883ZM366.682 307.315C367.278 306.72 367.943 306.284 368.678 306.007C369.42 305.723 370.173 305.604 370.937 305.649C371.71 305.699 372.433 305.913 373.107 306.291C373.98 306.78 374.526 307.353 374.744 308.011C374.972 308.674 374.871 309.361 374.443 310.072L373.173 309.36C373.402 308.942 373.441 308.532 373.29 308.131C373.147 307.734 372.817 307.39 372.298 307.1C371.624 306.722 370.89 306.607 370.097 306.752C369.311 306.891 368.574 307.304 367.888 307.991C367.194 308.684 366.866 309.336 366.903 309.947C366.939 310.557 367.295 311.051 367.969 311.429C368.487 311.719 369.018 311.863 369.56 311.861C370.101 311.858 370.619 311.711 371.113 311.42L372.384 312.131C371.605 312.613 370.752 312.873 369.824 312.911C368.904 312.942 368.015 312.717 367.16 312.238C366.486 311.861 366.007 311.402 365.725 310.861C365.452 310.325 365.392 309.751 365.547 309.138C365.701 308.525 366.08 307.918 366.682 307.315ZM381.691 315.393C381.509 315.575 381.303 315.76 381.074 315.949L375.396 312.769C374.871 313.36 374.664 313.938 374.774 314.503C374.9 315.065 375.274 315.52 375.896 315.868C376.406 316.154 376.924 316.297 377.45 316.296C377.992 316.294 378.493 316.17 378.954 315.925L380.225 316.637C379.481 317.084 378.649 317.323 377.728 317.353C376.814 317.377 375.934 317.152 375.087 316.678C374.413 316.3 373.93 315.839 373.64 315.293C373.358 314.753 373.289 314.174 373.435 313.556C373.588 312.931 373.962 312.321 374.558 311.726C375.153 311.13 375.822 310.691 376.564 310.407C377.306 310.123 378.06 310.01 378.825 310.067C379.606 310.122 380.343 310.343 381.034 310.73C381.708 311.108 382.186 311.561 382.466 312.09C382.747 312.618 382.815 313.17 382.671 313.745C382.543 314.318 382.216 314.868 381.691 315.393ZM380.672 314.511C381.036 314.146 381.249 313.779 381.309 313.409C381.376 313.031 381.304 312.679 381.091 312.352C380.894 312.023 380.588 311.743 380.173 311.51C379.577 311.176 378.913 311.045 378.181 311.116C377.458 311.192 376.793 311.486 376.186 311.998L380.672 314.511Z" fill="white"/>
<path d="M307.28 323.281L309.213 321.347C313.821 323.535 317.512 322.716 319.487 320.741C321.547 318.682 321.117 316.441 318.147 313.991L314.509 311.035C312.817 309.531 312.335 308.638 313.554 307.419C314.815 306.158 316.69 306.225 319.853 307.996C323.458 310.015 323.867 311.588 322.144 313.311L321.87 313.585L324.645 315.138L324.771 315.012C327.251 312.533 327.296 309.575 323.608 306.952L325.563 304.998L322.97 303.545L321.036 305.479C316.22 303.175 312.519 304.086 310.627 305.977C308.316 308.289 309.297 310.543 311.807 312.604L315.492 315.553C317.36 317.124 317.779 318.08 316.561 319.299C315.237 320.623 313.481 320.558 310.162 318.699C306.351 316.564 305.972 315.041 307.654 313.36L307.99 313.024L305.189 311.455L305.063 311.581C302.394 314.25 302.755 317.206 306.641 319.874L304.686 321.829L307.28 323.281ZM329.1 332.55C333.845 335.208 338.195 335.349 340.864 332.68C342.818 330.725 342.449 328.748 340.291 326.982L340.459 326.814C342.983 327.769 345.285 327.288 346.882 325.69C349.278 323.295 348.087 320.562 343.652 318.079C338.259 315.058 333.71 315.724 330.957 318.477L330.768 318.666L333.724 320.321L333.871 320.174C335.721 318.325 337.723 318.102 341.276 320.092C344.647 321.98 345.032 323.212 343.666 324.578C342.405 325.839 340.686 325.859 338.585 324.683L334.125 322.185L332.234 324.077L337.083 326.792C339.261 328.012 339.803 329.332 338.374 330.761C336.713 332.421 334.744 332.367 331.14 330.349C327.302 328.199 327.23 326.815 329.08 324.966L329.374 324.672L326.418 323.016L326.082 323.352C323.224 326.21 323.655 329.501 329.1 332.55ZM351.983 345.037L354.841 342.179L357.823 343.849L359.862 341.811L356.88 340.141L366.063 330.957L362.822 329.142L342.544 332.834L340.968 334.41L352.067 340.626L349.208 343.484L351.983 345.037ZM346.87 334.536L347.039 334.367L360.433 331.935L360.641 332.051L354.105 338.587L346.87 334.536ZM354.904 350.345C356.512 351.246 358.076 351.138 359.379 349.835L363.057 346.157L359.53 344.182L356.273 347.44L357.829 348.311L357.387 348.752C356.946 349.194 356.654 349.162 356.214 348.915L355.358 348.436L353.971 349.822L354.904 350.345ZM368.983 354.886C373.729 357.543 378.078 357.684 380.747 355.015C382.701 353.061 382.332 351.084 380.174 349.318L380.342 349.15C382.866 350.105 385.168 349.623 386.765 348.026C389.161 345.63 387.97 342.898 383.536 340.415C378.142 337.394 373.593 338.059 370.84 340.812L370.651 341.002L373.607 342.657L373.754 342.51C375.604 340.661 377.606 340.438 381.159 342.427C384.53 344.315 384.915 345.548 383.549 346.914C382.289 348.174 380.569 348.195 378.469 347.019L374.009 344.521L372.117 346.412L376.966 349.128C379.144 350.348 379.686 351.667 378.257 353.096C376.597 354.756 374.628 354.703 371.023 352.684C367.186 350.535 367.114 349.151 368.963 347.301L369.257 347.007L366.301 345.352L365.965 345.688C363.107 348.546 363.538 351.836 368.983 354.886ZM384.637 363.357C390.206 357.788 395.669 356.127 404.351 355.252L406.18 353.424L391.814 345.379L389.776 347.417L401.159 353.792L400.991 353.96C395.211 354.198 388.009 355.05 381.473 361.585L384.637 363.357ZM400.585 372.584C405.434 375.299 409.869 375.718 412.601 372.986C414.535 371.052 414.135 369.025 411.879 367.074L412.047 366.906C414.779 367.976 417.257 367.561 418.876 365.943C421.082 363.737 420.012 360.842 415.085 358.083C410.158 355.324 406.146 355.372 403.94 357.579C402.321 359.197 402.514 361.108 404.605 362.738L404.437 362.906C401.429 361.91 398.614 362.136 396.68 364.07C393.948 366.801 395.684 369.839 400.585 372.584ZM408.886 364.283C405.541 362.409 404.87 361.017 406.236 359.651C407.539 358.348 409.337 358.208 412.942 360.227C416.572 362.26 416.9 363.591 415.597 364.894C414.231 366.26 412.257 366.17 408.886 364.283ZM402.728 370.44C398.943 368.32 398.288 366.871 399.927 365.232C401.461 363.698 403.571 363.732 407.331 365.838C411.091 367.943 411.729 369.449 410.195 370.983C408.556 372.622 406.488 372.546 402.728 370.44ZM408.74 380.495C410.348 381.395 411.912 381.288 413.215 379.985L416.893 376.307L413.366 374.332L410.109 377.589L411.664 378.461L411.223 378.902C410.782 379.343 410.49 379.311 410.05 379.064L409.194 378.585L407.807 379.972L408.74 380.495ZM428.812 388.064L431.67 385.206L434.652 386.876L436.69 384.837L433.708 383.167L442.892 373.984L439.651 372.168L419.373 375.86L417.797 377.437L428.895 383.652L426.037 386.51L428.812 388.064ZM423.699 377.562L423.867 377.394L437.262 374.962L437.47 375.078L430.934 381.613L423.699 377.562ZM446.715 398.09L449.573 395.232L452.555 396.902L454.594 394.863L451.612 393.193L460.795 384.01L457.554 382.195L437.276 385.887L435.7 387.463L446.799 393.678L443.941 396.536L446.715 398.09ZM441.602 387.588L441.771 387.42L455.165 384.988L455.373 385.104L448.837 391.64L441.602 387.588Z" fill="white"/>
<path d="M244.871 383.241L243.692 382.581L244.778 374.092L238.946 379.923L237.766 379.262L245.101 371.928L246.281 372.589L245.205 381.068L251.026 375.246L252.206 375.907L244.871 383.241ZM258.942 382.138L253.184 387.897L252.004 387.236L252.855 386.385C252.336 386.553 251.789 386.608 251.215 386.548C250.656 386.487 250.135 386.32 249.651 386.049C249.098 385.739 248.692 385.37 248.433 384.941C248.181 384.505 248.112 384.029 248.224 383.512C248.344 383.001 248.671 382.479 249.203 381.946L252.576 378.573L253.743 379.227L250.496 382.474C249.929 383.041 249.668 383.578 249.714 384.085C249.767 384.584 250.101 385.006 250.714 385.35C251.345 385.703 252 385.824 252.678 385.712C253.356 385.6 253.997 385.243 254.599 384.64L257.762 381.478L258.942 382.138ZM269.583 387.934C270.136 388.244 270.534 388.614 270.777 389.045C271.027 389.469 271.092 389.937 270.972 390.449C270.851 390.961 270.524 391.483 269.992 392.015L266.598 395.409L265.431 394.756L268.689 391.498C269.263 390.924 269.524 390.387 269.47 389.887C269.433 389.385 269.116 388.967 268.52 388.633C267.906 388.29 267.256 388.177 266.571 388.296C265.893 388.408 265.253 388.765 264.65 389.368L261.477 392.541L260.31 391.887L263.567 388.63C264.142 388.056 264.402 387.519 264.349 387.019C264.312 386.517 263.995 386.099 263.398 385.765C262.785 385.422 262.135 385.309 261.45 385.428C260.772 385.54 260.131 385.897 259.529 386.5L256.356 389.673L255.176 389.012L260.934 383.254L262.114 383.915L261.284 384.745C261.818 384.574 262.361 384.517 262.911 384.574C263.469 384.636 263.986 384.8 264.462 385.066C265.058 385.4 265.477 385.804 265.718 386.277C265.959 386.751 265.981 387.261 265.786 387.807C266.391 387.512 267.035 387.381 267.717 387.413C268.399 387.446 269.021 387.619 269.583 387.934ZM274.4 392.467C274.985 392.26 275.62 392.178 276.303 392.222C276.987 392.266 277.627 392.455 278.224 392.789C278.864 393.148 279.316 393.592 279.58 394.123C279.845 394.654 279.9 395.225 279.746 395.838C279.599 396.444 279.231 397.041 278.642 397.63C278.061 398.211 277.395 398.647 276.646 398.938C275.897 399.229 275.137 399.355 274.366 399.317C273.604 399.283 272.908 399.09 272.277 398.737C271.663 398.393 271.231 397.982 270.982 397.503C270.741 397.03 270.672 396.559 270.775 396.092L269.713 397.154L268.533 396.493L276.309 388.717L277.489 389.378L274.4 392.467ZM277.436 396.955C277.871 396.52 278.141 396.081 278.247 395.638C278.353 395.195 278.305 394.785 278.101 394.409C277.906 394.038 277.588 393.728 277.147 393.482C276.715 393.239 276.226 393.102 275.679 393.069C275.148 393.034 274.605 393.118 274.051 393.321C273.513 393.522 273.03 393.837 272.603 394.264C272.169 394.698 271.895 395.141 271.782 395.591C271.684 396.039 271.729 396.452 271.917 396.831C272.121 397.207 272.439 397.516 272.871 397.758C273.312 398.005 273.798 398.146 274.329 398.181C274.876 398.214 275.418 398.13 275.957 397.929C276.502 397.721 276.995 397.396 277.436 396.955ZM286.877 401.93C286.695 402.112 286.49 402.298 286.261 402.486L280.582 399.306C280.058 399.898 279.851 400.476 279.961 401.04C280.086 401.602 280.46 402.057 281.082 402.406C281.592 402.692 282.11 402.834 282.637 402.834C283.179 402.831 283.68 402.708 284.14 402.463L285.411 403.174C284.667 403.621 283.835 403.86 282.914 403.891C282.001 403.915 281.12 403.689 280.273 403.215C279.599 402.837 279.117 402.376 278.826 401.831C278.544 401.29 278.476 400.711 278.622 400.093C278.774 399.469 279.148 398.859 279.744 398.263C280.339 397.668 281.008 397.228 281.75 396.944C282.493 396.661 283.246 396.547 284.012 396.604C284.793 396.659 285.529 396.88 286.221 397.268C286.895 397.645 287.372 398.098 287.653 398.627C287.933 399.156 288.001 399.707 287.858 400.283C287.73 400.856 287.403 401.405 286.877 401.93ZM285.858 401.048C286.223 400.684 286.435 400.316 286.495 399.946C286.563 399.568 286.49 399.216 286.277 398.89C286.08 398.561 285.775 398.28 285.36 398.048C284.763 397.714 284.099 397.582 283.367 397.653C282.644 397.729 281.979 398.023 281.372 398.536L285.858 401.048ZM291.338 401.74C291.875 401.527 292.424 401.436 292.987 401.467C293.558 401.502 294.12 401.675 294.673 401.985L293.685 402.973L293.374 402.798C292.052 402.058 290.809 402.269 289.646 403.432L286.515 406.563L285.335 405.902L291.093 400.144L292.273 400.805L291.338 401.74Z" fill="white"/>
<path d="M226.352 390.426C227.112 389.768 227.985 389.41 228.973 389.352C229.961 389.293 230.93 389.529 231.879 390.061C232.512 390.416 232.963 390.815 233.23 391.259C233.515 391.701 233.615 392.145 233.531 392.592C233.456 393.045 233.218 393.471 232.819 393.871C232.351 394.338 231.78 394.648 231.105 394.8C230.44 394.957 229.793 394.936 229.164 394.737L229.108 394.793C229.592 395.253 229.834 395.759 229.833 396.312C229.832 396.864 229.545 397.427 228.972 398.001C228.542 398.431 228.032 398.751 227.443 398.963C226.862 399.167 226.231 399.231 225.551 399.156C224.87 399.081 224.191 398.854 223.511 398.473C222.524 397.921 221.922 397.26 221.704 396.49C221.493 395.713 221.736 394.919 222.431 394.108L223.659 394.796C223.272 395.285 223.13 395.783 223.235 396.288C223.339 396.794 223.717 397.229 224.368 397.594C225.02 397.959 225.649 398.099 226.256 398.016C226.879 397.929 227.41 397.667 227.847 397.23C228.413 396.664 228.588 396.126 228.371 395.617C228.155 395.107 227.577 394.589 226.636 394.063L226.315 393.883L227.175 393.023L227.51 393.21C228.374 393.682 229.134 393.932 229.791 393.958C230.455 393.977 231.02 393.752 231.488 393.284C231.888 392.884 232.046 392.473 231.961 392.049C231.886 391.63 231.551 391.254 230.955 390.92C230.378 390.597 229.792 390.457 229.197 390.501C228.601 390.544 228.068 390.751 227.595 391.122L226.352 390.426ZM242.205 397.485L237.304 394.741L234.724 397.321C235.179 397.199 235.692 397.18 236.262 397.264C236.839 397.34 237.37 397.514 237.854 397.785C238.626 398.218 239.123 398.701 239.343 399.237C239.57 399.764 239.579 400.293 239.369 400.822C239.175 401.35 238.849 401.843 238.389 402.303C237.845 402.847 237.233 403.263 236.552 403.552C235.87 403.841 235.145 403.964 234.374 403.921C233.614 403.884 232.851 403.651 232.088 403.224C231.111 402.676 230.523 402.03 230.326 401.283C230.128 400.537 230.303 399.788 230.852 399.036L232.095 399.732C231.786 400.23 231.706 400.709 231.856 401.169C232.005 401.63 232.378 402.027 232.973 402.36C233.709 402.772 234.44 402.905 235.167 402.759C235.901 402.605 236.563 402.234 237.151 401.646C237.74 401.057 238.006 400.5 237.951 399.975C237.903 399.442 237.516 398.972 236.79 398.566C236.296 398.29 235.765 398.145 235.197 398.133C234.645 398.118 234.12 398.23 233.62 398.468L232.419 397.795L237.036 393.179L243.11 396.58L242.205 397.485ZM250.972 402.395L246.071 399.651L243.491 402.231C243.947 402.109 244.459 402.09 245.029 402.174C245.606 402.25 246.137 402.424 246.621 402.695C247.394 403.128 247.89 403.611 248.11 404.147C248.338 404.674 248.346 405.203 248.136 405.732C247.943 406.26 247.616 406.753 247.156 407.213C246.613 407.757 246.001 408.173 245.319 408.462C244.638 408.751 243.912 408.874 243.142 408.832C242.381 408.794 241.619 408.561 240.856 408.134C239.878 407.586 239.291 406.94 239.093 406.193C238.895 405.447 239.071 404.698 239.62 403.946L240.862 404.642C240.553 405.14 240.473 405.619 240.623 406.079C240.773 406.54 241.145 406.937 241.741 407.27C242.476 407.682 243.207 407.815 243.934 407.669C244.669 407.515 245.33 407.144 245.919 406.556C246.507 405.967 246.774 405.411 246.718 404.885C246.67 404.352 246.283 403.882 245.557 403.476C245.064 403.2 244.533 403.055 243.964 403.043C243.413 403.028 242.887 403.14 242.388 403.378L241.187 402.706L245.804 398.089L251.877 401.49L250.972 402.395ZM247.53 408.994L248.311 408.213L258.711 405.458L260.233 406.311L254.847 411.697L256.243 412.479L255.349 413.373L253.953 412.591L252.131 414.413L250.874 413.709L252.696 411.887L247.53 408.994ZM257.957 406.713L249.89 408.921L253.646 411.025L257.957 406.713ZM272.11 414.092L260.851 419.296L259.566 418.577L270.78 413.506L265.39 410.488L266.273 409.605L272.891 413.311L272.11 414.092ZM278.003 419.175C278.636 418.223 278.417 417.447 277.346 416.848C276.518 416.384 275.639 416.297 274.708 416.589C273.786 416.872 272.737 417.609 271.562 418.798C272.168 418.526 272.828 418.419 273.54 418.476C274.269 418.531 274.94 418.731 275.555 419.075C276.514 419.612 277.035 420.281 277.12 421.082C277.215 421.888 276.836 422.717 275.983 423.569C275.47 424.082 274.884 424.472 274.226 424.739C273.576 425.011 272.88 425.126 272.136 425.086C271.401 425.051 270.68 424.836 269.972 424.44C269.013 423.903 268.438 423.31 268.245 422.66C268.052 422.011 268.154 421.321 268.551 420.59C268.948 419.859 269.595 419.045 270.493 418.147C273.262 415.378 275.837 414.661 278.22 415.996C279.132 416.507 279.649 417.108 279.771 417.8C279.892 418.491 279.694 419.169 279.176 419.832L278.003 419.175ZM274.418 419.798C274.018 419.574 273.573 419.43 273.084 419.368C272.602 419.298 272.113 419.337 271.618 419.483C271.14 419.627 270.709 419.892 270.324 420.276C269.75 420.85 269.488 421.432 269.535 422.024C269.59 422.607 269.999 423.113 270.762 423.541C271.414 423.906 272.093 424.033 272.799 423.922C273.522 423.809 274.162 423.473 274.721 422.915C275.309 422.327 275.583 421.762 275.543 421.222C275.51 420.674 275.135 420.199 274.418 419.798ZM281.098 421.085C281.857 420.427 282.731 420.069 283.719 420.011C284.707 419.952 285.676 420.189 286.625 420.72C287.258 421.075 287.708 421.474 287.976 421.918C288.26 422.36 288.36 422.804 288.276 423.251C288.201 423.704 287.964 424.13 287.564 424.53C287.096 424.997 286.525 425.307 285.851 425.459C285.185 425.616 284.538 425.595 283.91 425.396L283.853 425.452C284.338 425.912 284.579 426.418 284.579 426.971C284.578 427.523 284.291 428.086 283.717 428.66C283.287 429.09 282.778 429.41 282.189 429.622C281.607 429.826 280.976 429.89 280.296 429.815C279.616 429.74 278.936 429.513 278.257 429.132C277.27 428.58 276.668 427.919 276.45 427.149C276.239 426.372 276.481 425.578 277.176 424.767L278.405 425.455C278.018 425.944 277.876 426.442 277.98 426.947C278.085 427.453 278.462 427.888 279.114 428.253C279.766 428.618 280.395 428.758 281.001 428.675C281.625 428.588 282.155 428.326 282.593 427.889C283.159 427.323 283.333 426.785 283.117 426.276C282.901 425.766 282.322 425.248 281.382 424.722L281.061 424.542L281.921 423.682L282.256 423.869C283.12 424.341 283.88 424.591 284.536 424.617C285.2 424.636 285.766 424.411 286.234 423.943C286.633 423.544 286.791 423.132 286.707 422.708C286.632 422.289 286.296 421.913 285.701 421.579C285.123 421.256 284.537 421.116 283.942 421.16C283.347 421.203 282.813 421.41 282.341 421.781L281.098 421.085ZM284.741 429.833L285.522 429.052L295.922 426.297L297.444 427.15L292.058 432.536L293.454 433.318L292.56 434.212L291.164 433.43L289.342 435.252L288.085 434.548L289.907 432.726L284.741 429.833ZM295.168 427.552L287.101 429.76L290.857 431.864L295.168 427.552ZM296.402 437.917C298.354 437.81 299.91 437.699 301.07 437.584C302.239 437.461 303.318 437.26 304.31 436.979C305.319 436.697 306.083 436.295 306.604 435.775C307.094 435.285 307.33 434.816 307.311 434.37C307.309 433.922 306.983 433.516 306.331 433.151C305.698 432.796 305.043 432.682 304.364 432.808C303.703 432.932 303.091 433.254 302.527 433.774L301.299 433.086C302.181 432.262 303.15 431.787 304.206 431.66C305.262 431.534 306.26 431.734 307.2 432.26C308.159 432.797 308.702 433.437 308.831 434.18C308.968 434.928 308.66 435.679 307.906 436.433C307.28 437.06 306.436 437.54 305.374 437.876C304.33 438.209 303.288 438.437 302.249 438.561C301.218 438.678 299.948 438.779 298.44 438.864L303.243 441.554L302.383 442.414L295.667 438.653L296.402 437.917ZM315.623 440.243C316.255 439.291 316.036 438.515 314.966 437.916C314.138 437.452 313.258 437.366 312.328 437.657C311.406 437.94 310.357 438.677 309.182 439.867C309.788 439.594 310.447 439.487 311.159 439.544C311.888 439.599 312.56 439.799 313.174 440.143C314.133 440.68 314.655 441.349 314.74 442.15C314.834 442.956 314.455 443.785 313.603 444.637C313.09 445.15 312.504 445.54 311.845 445.807C311.196 446.079 310.499 446.194 309.755 446.154C309.02 446.119 308.299 445.904 307.592 445.508C306.633 444.971 306.057 444.378 305.865 443.728C305.672 443.079 305.774 442.389 306.171 441.658C306.568 440.927 307.215 440.113 308.113 439.215C310.881 436.446 313.457 435.729 315.84 437.064C316.752 437.575 317.269 438.176 317.39 438.868C317.512 439.559 317.314 440.237 316.796 440.9L315.623 440.243ZM312.038 440.866C311.638 440.642 311.193 440.498 310.703 440.436C310.221 440.366 309.733 440.405 309.238 440.551C308.76 440.695 308.328 440.96 307.944 441.344C307.37 441.918 307.107 442.5 307.155 443.092C307.21 443.676 307.619 444.181 308.382 444.609C309.034 444.974 309.713 445.101 310.419 444.99C311.141 444.877 311.782 444.541 312.34 443.983C312.929 443.395 313.203 442.83 313.162 442.29C313.129 441.742 312.755 441.267 312.038 440.866ZM314.139 446.297L314.919 445.516L325.32 442.761L326.842 443.613L321.455 449L322.851 449.782L321.958 450.675L320.561 449.894L318.739 451.715L317.483 451.012L319.305 449.19L314.139 446.297ZM324.566 444.016L316.499 446.224L320.254 448.327L324.566 444.016ZM334.996 449.31L323.737 454.514L322.452 453.795L333.666 448.724L328.276 445.705L329.159 444.823L335.777 448.529L334.996 449.31ZM336.925 455.386C338.223 454.088 339.494 453.223 340.74 452.791C341.993 452.351 343.271 452.496 344.574 453.226C345.868 453.951 346.409 454.825 346.199 455.848C345.996 456.865 345.246 458.021 343.948 459.319C342.628 460.639 341.341 461.519 340.088 461.959C338.835 462.399 337.562 462.256 336.268 461.532C334.965 460.802 334.419 459.925 334.629 458.902C334.84 457.878 335.605 456.706 336.925 455.386ZM342.692 458.615C343.348 457.959 343.847 457.373 344.187 456.858C344.545 456.34 344.696 455.848 344.64 455.382C344.593 454.92 344.258 454.515 343.635 454.165C343.002 453.811 342.378 453.679 341.764 453.771C341.159 453.867 340.571 454.115 339.999 454.512C339.444 454.907 338.838 455.433 338.182 456.09C337.503 456.769 336.984 457.367 336.627 457.884C336.278 458.407 336.127 458.899 336.174 459.361C336.23 459.828 336.574 460.238 337.207 460.593C337.831 460.942 338.445 461.068 339.05 460.972C339.664 460.88 340.253 460.633 340.815 460.23C341.387 459.832 342.013 459.294 342.692 458.615ZM342.189 463.559C344.141 463.452 345.697 463.341 346.858 463.226C348.026 463.103 349.106 462.902 350.097 462.622C351.106 462.339 351.871 461.938 352.391 461.417C352.881 460.927 353.117 460.458 353.099 460.013C353.097 459.564 352.77 459.158 352.118 458.793C351.485 458.438 350.83 458.324 350.152 458.451C349.49 458.574 348.878 458.896 348.315 459.416L347.086 458.728C347.968 457.904 348.937 457.429 349.993 457.302C351.049 457.176 352.047 457.376 352.987 457.902C353.946 458.439 354.489 459.079 354.618 459.822C354.756 460.57 354.447 461.321 353.693 462.075C353.067 462.702 352.223 463.182 351.162 463.518C350.117 463.851 349.075 464.079 348.036 464.203C347.005 464.32 345.735 464.421 344.227 464.506L349.03 467.196L348.17 468.056L341.454 464.295L342.189 463.559ZM355.642 462.832C356.401 462.174 357.275 461.816 358.263 461.757C359.251 461.699 360.22 461.935 361.169 462.467C361.802 462.821 362.252 463.221 362.52 463.665C362.804 464.106 362.904 464.551 362.82 464.998C362.745 465.45 362.508 465.876 362.108 466.276C361.64 466.744 361.069 467.054 360.395 467.206C359.729 467.363 359.083 467.342 358.454 467.142L358.397 467.199C358.882 467.659 359.123 468.165 359.123 468.717C359.122 469.27 358.835 469.833 358.261 470.406C357.831 470.836 357.322 471.157 356.733 471.369C356.151 471.572 355.52 471.637 354.84 471.562C354.16 471.487 353.48 471.259 352.801 470.879C351.814 470.326 351.212 469.665 350.994 468.896C350.783 468.119 351.025 467.325 351.72 466.514L352.949 467.202C352.562 467.691 352.42 468.188 352.524 468.694C352.629 469.2 353.006 469.635 353.658 470C354.31 470.365 354.939 470.505 355.545 470.421C356.169 470.335 356.7 470.073 357.137 469.636C357.703 469.07 357.878 468.532 357.661 468.022C357.445 467.513 356.866 466.995 355.926 466.468L355.605 466.288L356.465 465.428L356.8 465.616C357.664 466.088 358.424 466.337 359.08 466.364C359.744 466.382 360.31 466.158 360.778 465.69C361.177 465.29 361.335 464.878 361.251 464.454C361.176 464.036 360.84 463.66 360.245 463.326C359.667 463.003 359.081 462.863 358.486 462.906C357.891 462.95 357.357 463.157 356.885 463.528L355.642 462.832ZM371.361 469.675L360.102 474.879L358.817 474.16L370.031 469.089L364.641 466.071L365.524 465.188L372.142 468.895L371.361 469.675Z" fill="white"/>
<path d="M524.743 529.765L522.295 532.213L525.588 534.057L524.8 534.845L521.507 533.001L518.985 535.523L522.667 537.585L521.879 538.373L517.017 535.65L524.351 528.316L529.213 531.039L528.425 531.827L524.743 529.765ZM527.372 541.449L527.83 538.362L524.066 539.598L522.834 538.908L527.987 537.335L528.593 533.15L529.928 533.898L529.48 536.975L533.221 535.742L534.453 536.432L529.323 538.002L528.708 542.197L527.372 541.449ZM535.745 538.811C536.308 538.613 536.926 538.533 537.602 538.572C538.293 538.61 538.945 538.8 539.559 539.144C540.19 539.497 540.637 539.939 540.902 540.47C541.176 541.006 541.235 541.58 541.081 542.193C540.933 542.799 540.565 543.396 539.977 543.984C539.396 544.566 538.73 545.002 537.981 545.292C537.232 545.583 536.472 545.709 535.701 545.671C534.939 545.638 534.242 545.444 533.611 545.091C533.006 544.752 532.579 544.343 532.329 543.865C532.095 543.384 532.022 542.911 532.109 542.447L528.316 546.24L527.136 545.579L535.626 537.089L536.806 537.75L535.745 538.811ZM538.771 543.309C539.205 542.875 539.476 542.436 539.582 541.993C539.688 541.549 539.639 541.14 539.436 540.763C539.241 540.392 538.923 540.083 538.482 539.836C538.05 539.594 537.561 539.456 537.014 539.423C536.483 539.388 535.94 539.472 535.386 539.676C534.848 539.877 534.365 540.191 533.938 540.618C533.503 541.053 533.23 541.495 533.116 541.945C533.019 542.393 533.064 542.807 533.252 543.185C533.456 543.561 533.773 543.87 534.206 544.112C534.646 544.359 535.132 544.5 535.664 544.536C536.21 544.569 536.753 544.484 537.291 544.283C537.837 544.075 538.33 543.75 538.771 543.309Z" fill="white"/>
<path d="M500.181 552.039C502.133 551.932 503.689 551.82 504.85 551.705C506.018 551.583 507.098 551.381 508.089 551.101C509.098 550.819 509.863 550.417 510.383 549.897C510.873 549.406 511.109 548.938 511.091 548.492C511.089 548.044 510.762 547.637 510.11 547.272C509.477 546.918 508.822 546.804 508.144 546.93C507.482 547.054 506.87 547.376 506.307 547.896L505.078 547.208C505.96 546.384 506.929 545.909 507.985 545.782C509.041 545.656 510.039 545.856 510.979 546.382C511.938 546.919 512.481 547.559 512.61 548.302C512.748 549.05 512.439 549.801 511.685 550.555C511.059 551.181 510.215 551.662 509.154 551.997C508.109 552.33 507.067 552.559 506.028 552.683C504.997 552.8 503.727 552.901 502.219 552.986L507.022 555.676L506.162 556.536L499.446 552.775L500.181 552.039ZM509.055 555.455L509.836 554.674L520.236 551.919L521.758 552.772L516.372 558.158L517.768 558.94L516.874 559.834L515.478 559.052L513.656 560.874L512.399 560.17L514.221 558.348L509.055 555.455ZM519.482 553.174L511.415 555.382L515.171 557.485L519.482 553.174ZM531.937 554.483L515.529 564.923L514.272 564.22L530.667 553.771L531.937 554.483ZM523.634 565.173C525.586 565.066 527.142 564.954 528.302 564.839C529.471 564.717 530.55 564.516 531.542 564.235C532.551 563.953 533.315 563.551 533.836 563.031C534.326 562.54 534.562 562.072 534.543 561.626C534.541 561.178 534.215 560.772 533.563 560.407C532.93 560.052 532.274 559.938 531.596 560.064C530.935 560.188 530.323 560.51 529.759 561.03L528.531 560.342C529.413 559.518 530.382 559.043 531.438 558.916C532.493 558.79 533.492 558.99 534.432 559.516C535.39 560.053 535.934 560.693 536.063 561.436C536.2 562.184 535.892 562.935 535.138 563.689C534.512 564.315 533.668 564.796 532.606 565.131C531.562 565.464 530.52 565.693 529.481 565.817C528.45 565.934 527.18 566.035 525.671 566.12L530.475 568.81L529.615 569.67L522.899 565.909L523.634 565.173ZM542.855 567.499C543.487 566.547 543.268 565.771 542.198 565.172C541.369 564.708 540.49 564.621 539.56 564.913C538.638 565.196 537.589 565.933 536.414 567.122C537.02 566.85 537.679 566.743 538.391 566.8C539.12 566.855 539.792 567.055 540.406 567.399C541.365 567.936 541.887 568.605 541.972 569.406C542.066 570.212 541.687 571.041 540.835 571.893C540.322 572.406 539.736 572.796 539.077 573.063C538.428 573.335 537.731 573.45 536.987 573.41C536.252 573.375 535.531 573.16 534.824 572.764C533.865 572.227 533.289 571.634 533.096 570.984C532.904 570.335 533.006 569.645 533.403 568.914C533.8 568.183 534.447 567.368 535.345 566.471C538.113 563.702 540.689 562.985 543.072 564.32C543.984 564.83 544.501 565.432 544.622 566.124C544.744 566.815 544.546 567.493 544.028 568.156L542.855 567.499ZM539.27 568.122C538.87 567.898 538.425 567.754 537.935 567.692C537.453 567.622 536.965 567.661 536.47 567.807C535.992 567.951 535.56 568.216 535.175 568.6C534.602 569.174 534.339 569.756 534.387 570.347C534.442 570.931 534.851 571.437 535.614 571.865C536.266 572.229 536.944 572.357 537.65 572.246C538.373 572.133 539.014 571.797 539.572 571.239C540.161 570.651 540.435 570.086 540.394 569.546C540.361 568.998 539.987 568.523 539.27 568.122Z" fill="white"/>
<g filter="url(#filter2_d_6704_16)">
<rect width="392.073" height="212.611" rx="12" transform="matrix(0.872496 0.488621 -0.707107 0.707107 399.236 242.032)" fill="url(#paint1_radial_6704_16)" shape-rendering="crispEdges"/>
<path d="M398.47 270.086C398.756 270.312 398.946 270.587 399.039 270.912C399.14 271.242 399.139 271.58 399.035 271.927C398.94 272.278 398.746 272.601 398.452 272.895C398.08 273.266 397.627 273.537 397.093 273.708C396.565 273.871 395.989 273.914 395.365 273.838C394.756 273.759 394.149 273.55 393.544 273.212L390.173 271.324L397.496 264L400.738 265.815C401.351 266.159 401.79 266.536 402.054 266.946C402.325 267.349 402.429 267.751 402.365 268.152C402.301 268.554 402.094 268.929 401.743 269.28C401.309 269.714 400.801 269.992 400.22 270.115C399.655 270.236 399.071 270.226 398.47 270.086ZM395.514 267.823L397.497 268.934C398.05 269.244 398.583 269.379 399.096 269.338C399.609 269.297 400.051 269.091 400.422 268.72C400.793 268.349 400.933 267.973 400.84 267.594C400.748 267.214 400.416 266.865 399.846 266.545L397.888 265.449L395.514 267.823ZM394.228 272.365C394.816 272.695 395.386 272.839 395.939 272.799C396.491 272.759 396.967 272.539 397.366 272.14C397.773 271.733 397.919 271.318 397.804 270.893C397.696 270.461 397.353 270.083 396.774 269.759L394.725 268.612L392.141 271.196L394.228 272.365ZM400.583 272.63C401.172 272.041 401.834 271.609 402.569 271.332C403.311 271.048 404.06 270.927 404.815 270.967C405.579 271.012 406.276 271.212 406.907 271.565C407.529 271.913 407.961 272.325 408.202 272.798C408.443 273.272 408.511 273.736 408.406 274.191L409.457 273.141L410.65 273.809L404.892 279.567L403.699 278.899L404.771 277.827C404.201 278.033 403.571 278.117 402.88 278.08C402.205 278.04 401.56 277.849 400.947 277.505C400.316 277.152 399.871 276.706 399.614 276.168C399.356 275.63 399.308 275.052 399.469 274.432C399.63 273.812 400.002 273.211 400.583 272.63ZM406.589 276.009C407.023 275.575 407.293 275.136 407.399 274.693C407.505 274.25 407.457 273.84 407.253 273.464C407.065 273.085 406.751 272.773 406.31 272.526C405.869 272.279 405.383 272.138 404.852 272.103C404.321 272.067 403.786 272.15 403.248 272.352C402.71 272.553 402.223 272.871 401.789 273.305C401.348 273.746 401.071 274.192 400.957 274.642C400.851 275.086 400.892 275.496 401.08 275.875C401.275 276.246 401.593 276.555 402.034 276.802C402.474 277.049 402.96 277.19 403.492 277.225C404.038 277.258 404.581 277.174 405.119 276.973C405.665 276.765 406.154 276.444 406.589 276.009ZM415.841 273.569L408.066 281.344L406.886 280.683L414.661 272.908L415.841 273.569ZM412.536 279.323C413.124 278.735 413.786 278.302 414.521 278.026C415.263 277.742 416.012 277.62 416.767 277.661C417.531 277.706 418.228 277.905 418.859 278.259C419.481 278.607 419.913 279.018 420.154 279.492C420.395 279.966 420.463 280.43 420.359 280.885L421.409 279.834L422.602 280.502L416.844 286.26L415.651 285.592L416.723 284.521C416.154 284.726 415.523 284.81 414.832 284.773C414.157 284.734 413.513 284.542 412.899 284.199C412.268 283.845 411.824 283.4 411.566 282.862C411.308 282.324 411.26 281.745 411.421 281.125C411.583 280.505 411.954 279.905 412.536 279.323ZM418.541 282.703C418.975 282.269 419.245 281.83 419.352 281.387C419.458 280.943 419.409 280.534 419.206 280.157C419.018 279.779 418.703 279.466 418.262 279.219C417.822 278.972 417.336 278.831 416.804 278.796C416.273 278.761 415.739 278.844 415.2 279.045C414.662 279.246 414.176 279.564 413.741 279.999C413.3 280.44 413.023 280.886 412.91 281.336C412.804 281.779 412.844 282.19 413.032 282.568C413.227 282.94 413.545 283.249 413.986 283.496C414.427 283.743 414.913 283.884 415.444 283.919C415.991 283.952 416.533 283.868 417.071 283.667C417.617 283.458 418.107 283.137 418.541 282.703ZM428.163 283.452C429.027 283.937 429.514 284.542 429.622 285.27C429.738 285.99 429.396 286.75 428.598 287.548L425.204 290.942L424.037 290.289L427.294 287.031C427.869 286.457 428.129 285.92 428.076 285.42C428.03 284.913 427.7 284.488 427.086 284.145C426.464 283.796 425.809 283.675 425.123 283.782C424.444 283.894 423.804 284.252 423.202 284.854L420.018 288.038L418.838 287.377L424.596 281.619L425.776 282.28L424.956 283.099C425.484 282.936 426.027 282.885 426.586 282.946C427.153 283.013 427.679 283.181 428.163 283.452ZM429.58 288.885C430.175 288.29 430.841 287.853 431.576 287.577C432.318 287.293 433.071 287.174 433.835 287.219C434.607 287.269 435.331 287.483 436.005 287.86C436.878 288.349 437.423 288.923 437.642 289.581C437.869 290.243 437.769 290.93 437.341 291.641L436.07 290.93C436.3 290.512 436.339 290.102 436.187 289.7C436.045 289.304 435.714 288.96 435.196 288.67C434.521 288.292 433.788 288.176 432.995 288.322C432.208 288.461 431.472 288.874 430.786 289.56C430.092 290.254 429.764 290.906 429.8 291.516C429.837 292.127 430.192 292.621 430.867 292.999C431.385 293.289 431.915 293.433 432.457 293.431C432.999 293.428 433.517 293.281 434.011 292.989L435.282 293.701C434.503 294.183 433.65 294.443 432.722 294.48C431.801 294.511 430.913 294.287 430.057 293.808C429.383 293.43 428.905 292.971 428.623 292.431C428.35 291.895 428.29 291.321 428.445 290.708C428.599 290.095 428.977 289.487 429.58 288.885ZM444.589 296.963C444.407 297.145 444.201 297.33 443.972 297.519L438.293 294.338C437.769 294.93 437.562 295.508 437.672 296.072C437.797 296.634 438.171 297.09 438.794 297.438C439.304 297.724 439.822 297.866 440.348 297.866C440.89 297.863 441.391 297.74 441.852 297.495L443.122 298.207C442.379 298.654 441.547 298.892 440.626 298.923C439.712 298.947 438.832 298.722 437.985 298.247C437.31 297.87 436.828 297.408 436.537 296.863C436.255 296.322 436.187 295.743 436.333 295.126C436.486 294.501 436.86 293.891 437.455 293.295C438.051 292.7 438.719 292.26 439.462 291.977C440.204 291.693 440.958 291.58 441.723 291.637C442.504 291.692 443.24 291.913 443.932 292.3C444.606 292.678 445.083 293.131 445.364 293.659C445.644 294.188 445.713 294.74 445.569 295.315C445.441 295.888 445.114 296.437 444.589 296.963ZM443.57 296.08C443.934 295.716 444.146 295.349 444.207 294.978C444.274 294.601 444.201 294.249 443.989 293.922C443.792 293.593 443.486 293.312 443.071 293.08C442.475 292.746 441.811 292.614 441.079 292.686C440.356 292.761 439.691 293.056 439.084 293.568L443.57 296.08Z" fill="white"/>
<path d="M370.177 304.85L372.111 302.917C376.719 305.104 380.409 304.286 382.385 302.311C384.444 300.251 384.015 298.011 381.045 295.561L377.406 292.605C375.715 291.101 375.233 290.208 376.452 288.989C377.713 287.728 379.588 287.794 382.751 289.566C386.355 291.585 386.764 293.158 385.041 294.881L384.768 295.154L387.543 296.708L387.669 296.582C390.148 294.102 390.194 291.144 386.506 288.522L388.46 286.567L385.867 285.115L383.934 287.048C379.118 284.745 375.416 285.655 373.525 287.547C371.213 289.858 372.195 292.113 374.705 294.174L378.39 297.123C380.258 298.693 380.677 299.65 379.458 300.868C378.134 302.192 376.379 302.127 373.06 300.269C369.248 298.134 368.87 296.611 370.551 294.93L370.888 294.593L368.087 293.025L367.961 293.151C365.292 295.82 365.653 298.776 369.539 301.444L367.584 303.398L370.177 304.85ZM391.998 314.12C396.743 316.777 401.093 316.918 403.761 314.249C405.716 312.295 405.347 310.318 403.189 308.552L403.357 308.384C405.881 309.339 408.183 308.857 409.78 307.26C412.176 304.864 410.984 302.132 406.55 299.649C401.157 296.628 396.608 297.293 393.855 300.046L393.666 300.236L396.622 301.891L396.769 301.744C398.618 299.895 400.621 299.672 404.173 301.661C407.544 303.549 407.93 304.782 406.564 306.148C405.303 307.408 403.584 307.429 401.483 306.253L397.023 303.755L395.132 305.646L399.981 308.362C402.159 309.582 402.7 310.901 401.271 312.33C399.611 313.99 397.642 313.937 394.038 311.918C390.2 309.769 390.128 308.385 391.977 306.535L392.272 306.241L389.316 304.586L388.979 304.922C386.121 307.78 386.553 311.07 391.998 314.12ZM414.881 326.607L417.739 323.749L420.721 325.419L422.759 323.381L419.777 321.711L428.961 312.527L425.72 310.712L405.442 314.404L403.866 315.98L414.964 322.195L412.106 325.053L414.881 326.607ZM409.768 316.105L409.936 315.937L423.331 313.505L423.538 313.621L417.003 320.157L409.768 316.105ZM417.802 331.915C419.41 332.815 420.974 332.708 422.277 331.405L425.954 327.727L422.428 325.752L419.17 329.009L420.726 329.881L420.285 330.322C419.844 330.763 419.552 330.731 419.111 330.484L418.256 330.005L416.869 331.392L417.802 331.915ZM431.881 336.456C436.626 339.113 440.976 339.254 443.645 336.585C445.599 334.631 445.23 332.654 443.072 330.888L443.24 330.72C445.764 331.674 448.066 331.193 449.663 329.596C452.059 327.2 450.867 324.467 446.433 321.984C441.04 318.964 436.491 319.629 433.738 322.382L433.549 322.571L436.505 324.227L436.652 324.08C438.501 322.23 440.504 322.008 444.056 323.997C447.427 325.885 447.813 327.117 446.447 328.483C445.186 329.744 443.467 329.765 441.366 328.588L436.906 326.091L435.015 327.982L439.864 330.698C442.042 331.917 442.583 333.237 441.154 334.666C439.494 336.326 437.525 336.272 433.921 334.254C430.083 332.105 430.011 330.72 431.861 328.871L432.155 328.577L429.199 326.921L428.863 327.258C426.005 330.116 426.436 333.406 431.881 336.456ZM447.534 344.927C453.103 339.358 458.567 337.697 467.249 336.822L469.077 334.993L454.712 326.948L452.673 328.987L464.057 335.362L463.889 335.53C458.109 335.768 450.906 336.619 444.371 343.155L447.534 344.927ZM463.483 354.153C468.332 356.869 472.767 357.287 475.499 354.555C477.432 352.622 477.032 350.595 474.777 348.643L474.945 348.475C477.677 349.546 480.155 349.131 481.773 347.513C483.98 345.306 482.91 342.412 477.983 339.653C473.056 336.894 469.044 336.942 466.837 339.148C465.219 340.766 465.412 342.677 467.503 344.308L467.335 344.476C464.327 343.479 461.511 343.706 459.578 345.639C456.846 348.371 458.582 351.409 463.483 354.153ZM471.783 345.852C468.438 343.979 467.767 342.587 469.133 341.221C470.436 339.918 472.235 339.778 475.839 341.796C479.47 343.829 479.797 345.16 478.494 346.463C477.128 347.829 475.154 347.74 471.783 345.852ZM465.626 352.01C461.84 349.89 461.185 348.441 462.825 346.802C464.359 345.268 466.468 345.302 470.228 347.407C473.988 349.513 474.627 351.018 473.093 352.552C471.454 354.191 469.386 354.115 465.626 352.01ZM471.638 362.064C473.246 362.965 474.81 362.857 476.113 361.554L479.79 357.877L476.264 355.902L473.006 359.159L474.562 360.03L474.121 360.472C473.68 360.913 473.388 360.881 472.947 360.634L472.092 360.155L470.705 361.542L471.638 362.064ZM491.71 369.633L494.568 366.775L497.55 368.445L499.588 366.407L496.606 364.737L505.79 355.553L502.548 353.738L482.271 357.43L480.695 359.006L491.793 365.221L488.935 368.08L491.71 369.633ZM486.597 359.131L486.765 358.963L500.16 356.531L500.367 356.647L493.832 363.183L486.597 359.131ZM509.613 379.66L512.471 376.802L515.453 378.472L517.491 376.433L514.509 374.763L523.693 365.579L520.452 363.764L500.174 367.456L498.598 369.032L509.696 375.248L506.838 378.106L509.613 379.66ZM504.5 369.158L504.668 368.99L518.063 366.557L518.27 366.674L511.735 373.209L504.5 369.158Z" fill="white"/>
<path d="M309.142 354.155L304.508 358.788C303.857 359.44 303.568 360.032 303.641 360.565C303.724 361.103 304.115 361.568 304.815 361.96C305.507 362.347 306.204 362.492 306.909 362.395C307.621 362.302 308.304 361.93 308.955 361.279L313.589 356.645L314.769 357.306L310.145 361.929C309.536 362.539 308.87 362.969 308.147 363.22C307.431 363.464 306.712 363.542 305.991 363.455C305.278 363.372 304.601 363.152 303.962 362.794C303.322 362.435 302.844 362.009 302.529 361.516C302.222 361.027 302.124 360.491 302.235 359.909C302.361 359.324 302.729 358.727 303.339 358.117L307.962 353.494L309.142 354.155ZM318.738 361.807C319.602 362.291 320.089 362.897 320.197 363.625C320.313 364.345 319.972 365.104 319.173 365.903L315.779 369.297L314.612 368.643L317.87 365.386C318.444 364.812 318.705 364.275 318.651 363.775C318.605 363.268 318.275 362.843 317.662 362.499C317.039 362.151 316.385 362.03 315.698 362.137C315.02 362.249 314.379 362.606 313.777 363.209L310.593 366.393L309.413 365.732L315.171 359.974L316.351 360.634L315.532 361.454C316.059 361.291 316.602 361.24 317.161 361.301C317.728 361.367 318.254 361.536 318.738 361.807ZM325.009 364.024C324.784 363.898 324.657 363.729 324.628 363.516C324.598 363.302 324.674 363.105 324.857 362.923C325.039 362.74 325.271 362.63 325.552 362.591C325.834 362.552 326.087 362.595 326.312 362.721C326.528 362.842 326.646 363.007 326.667 363.215C326.697 363.429 326.62 363.626 326.438 363.808C326.256 363.991 326.024 364.101 325.743 364.14C325.47 364.184 325.225 364.145 325.009 364.024ZM324.644 365.279L318.886 371.037L317.706 370.376L323.464 364.618L324.644 365.279ZM326.774 368.127C327.336 367.928 327.955 367.849 328.63 367.888C329.321 367.925 329.974 368.116 330.587 368.46C331.218 368.813 331.666 369.255 331.931 369.786C332.204 370.321 332.264 370.896 332.109 371.509C331.962 372.114 331.594 372.712 331.006 373.3C330.424 373.881 329.759 374.318 329.01 374.608C328.261 374.899 327.501 375.025 326.73 374.987C325.968 374.954 325.271 374.76 324.64 374.407C324.035 374.068 323.608 373.659 323.358 373.181C323.124 372.7 323.051 372.227 323.138 371.763L319.345 375.556L318.165 374.895L326.655 366.405L327.835 367.066L326.774 368.127ZM329.8 372.625C330.234 372.19 330.504 371.752 330.611 371.308C330.717 370.865 330.668 370.455 330.465 370.079C330.27 369.708 329.952 369.399 329.511 369.152C329.079 368.91 328.589 368.772 328.042 368.739C327.511 368.704 326.969 368.788 326.415 368.991C325.877 369.193 325.394 369.507 324.966 369.934C324.532 370.369 324.258 370.811 324.145 371.261C324.048 371.709 324.093 372.122 324.281 372.501C324.484 372.877 324.802 373.186 325.234 373.428C325.675 373.675 326.161 373.816 326.692 373.851C327.239 373.884 327.782 373.8 328.32 373.599C328.865 373.391 329.359 373.066 329.8 372.625ZM332.118 373.923C332.706 373.334 333.368 372.902 334.103 372.625C334.845 372.341 335.594 372.22 336.349 372.26C337.113 372.305 337.81 372.505 338.441 372.858C339.064 373.207 339.495 373.618 339.736 374.091C339.977 374.565 340.046 375.03 339.941 375.485L340.992 374.434L342.185 375.102L336.426 380.86L335.234 380.192L336.305 379.12C335.736 379.326 335.106 379.41 334.415 379.373C333.739 379.333 333.095 379.142 332.481 378.798C331.85 378.445 331.406 377.999 331.148 377.461C330.89 376.924 330.842 376.345 331.004 375.725C331.165 375.105 331.536 374.504 332.118 373.923ZM338.123 377.302C338.558 376.868 338.828 376.429 338.934 375.986C339.04 375.543 338.991 375.133 338.788 374.757C338.6 374.378 338.286 374.066 337.845 373.819C337.404 373.572 336.918 373.431 336.387 373.396C335.856 373.361 335.321 373.444 334.783 373.645C334.244 373.846 333.758 374.164 333.324 374.598C332.882 375.039 332.605 375.485 332.492 375.936C332.386 376.379 332.427 376.79 332.615 377.168C332.809 377.539 333.127 377.849 333.568 378.095C334.009 378.342 334.495 378.483 335.026 378.519C335.573 378.552 336.115 378.467 336.654 378.266C337.199 378.058 337.689 377.737 338.123 377.302ZM350.298 379.646L337.55 385.719L336.332 385.036L340.506 383.046L343.336 375.747L344.645 376.48L342.21 382.394L349.079 378.963L350.298 379.646ZM358.365 386.507L357.556 387.316L352.383 384.419L353.192 383.61L358.365 386.507ZM366.885 397.918L365.705 397.257L366.791 388.768L360.96 394.599L359.78 393.939L367.114 386.604L368.294 387.265L367.218 395.744L373.039 389.923L374.219 390.583L366.885 397.918ZM380.955 396.815L375.197 402.573L374.017 401.912L374.868 401.061C374.349 401.229 373.803 401.284 373.228 401.224C372.67 401.163 372.148 400.996 371.664 400.725C371.111 400.416 370.705 400.046 370.447 399.617C370.195 399.181 370.125 398.705 370.237 398.188C370.358 397.677 370.684 397.155 371.216 396.622L374.589 393.249L375.756 393.903L372.509 397.15C371.942 397.717 371.681 398.254 371.728 398.761C371.781 399.261 372.114 399.682 372.728 400.026C373.359 400.379 374.013 400.5 374.692 400.388C375.37 400.276 376.01 399.919 376.613 399.317L379.775 396.154L380.955 396.815ZM391.596 402.61C392.15 402.92 392.548 403.29 392.791 403.721C393.041 404.146 393.106 404.613 392.985 405.125C392.864 405.637 392.538 406.159 392.006 406.691L388.612 410.085L387.445 409.432L390.702 406.174C391.276 405.6 391.537 405.063 391.484 404.563C391.446 404.061 391.129 403.643 390.533 403.309C389.919 402.966 389.27 402.853 388.585 402.972C387.906 403.084 387.266 403.441 386.664 404.044L383.49 407.217L382.323 406.564L385.581 403.306C386.155 402.732 386.416 402.195 386.363 401.695C386.325 401.193 386.008 400.775 385.412 400.441C384.798 400.098 384.149 399.985 383.463 400.104C382.785 400.216 382.145 400.573 381.542 401.176L378.369 404.349L377.189 403.688L382.947 397.93L384.127 398.591L383.297 399.421C383.832 399.25 384.374 399.194 384.924 399.25C385.483 399.312 386 399.476 386.475 399.742C387.072 400.076 387.49 400.48 387.731 400.953C387.972 401.427 387.995 401.937 387.799 402.483C388.404 402.188 389.048 402.057 389.73 402.089C390.413 402.122 391.035 402.295 391.596 402.61ZM396.413 407.143C396.998 406.936 397.633 406.854 398.317 406.898C399.001 406.942 399.641 407.131 400.237 407.465C400.877 407.824 401.329 408.268 401.594 408.799C401.859 409.33 401.914 409.902 401.759 410.514C401.612 411.12 401.244 411.717 400.656 412.306C400.074 412.887 399.409 413.323 398.66 413.614C397.911 413.905 397.151 414.031 396.38 413.993C395.618 413.959 394.921 413.766 394.29 413.413C393.676 413.069 393.245 412.658 392.995 412.179C392.754 411.706 392.685 411.235 392.788 410.768L391.727 411.83L390.547 411.169L398.323 403.393L399.502 404.054L396.413 407.143ZM399.45 411.631C399.884 411.196 400.154 410.758 400.261 410.314C400.367 409.871 400.318 409.461 400.114 409.085C399.92 408.714 399.602 408.404 399.161 408.158C398.729 407.916 398.239 407.778 397.692 407.745C397.161 407.71 396.619 407.794 396.065 407.997C395.526 408.199 395.044 408.513 394.616 408.94C394.182 409.374 393.908 409.817 393.795 410.267C393.698 410.715 393.743 411.128 393.931 411.507C394.134 411.883 394.452 412.192 394.884 412.434C395.325 412.681 395.811 412.822 396.342 412.857C396.889 412.89 397.432 412.806 397.97 412.605C398.515 412.397 399.009 412.072 399.45 411.631ZM408.891 416.606C408.709 416.789 408.503 416.974 408.274 417.163L402.595 413.982C402.071 414.574 401.864 415.152 401.974 415.716C402.1 416.278 402.473 416.733 403.096 417.082C403.606 417.368 404.124 417.51 404.65 417.51C405.192 417.507 405.693 417.384 406.154 417.139L407.424 417.85C406.681 418.297 405.849 418.536 404.928 418.567C404.014 418.591 403.134 418.365 402.287 417.891C401.613 417.514 401.13 417.052 400.839 416.507C400.557 415.966 400.489 415.387 400.635 414.77C400.788 414.145 401.162 413.535 401.757 412.939C402.353 412.344 403.022 411.904 403.764 411.621C404.506 411.337 405.26 411.223 406.025 411.281C406.806 411.335 407.543 411.557 408.234 411.944C408.908 412.321 409.386 412.774 409.666 413.303C409.946 413.832 410.015 414.384 409.871 414.959C409.743 415.532 409.416 416.081 408.891 416.606ZM407.872 415.724C408.236 415.36 408.448 414.993 408.509 414.622C408.576 414.245 408.504 413.892 408.291 413.566C408.094 413.237 407.788 412.956 407.373 412.724C406.777 412.39 406.113 412.258 405.381 412.329C404.658 412.405 403.993 412.699 403.386 413.212L407.872 415.724ZM413.351 416.416C413.888 416.203 414.438 416.112 415 416.143C415.571 416.178 416.133 416.351 416.686 416.661L415.699 417.649L415.388 417.474C414.065 416.734 412.822 416.945 411.66 418.108L408.528 421.239L407.349 420.578L413.107 414.82L414.286 415.481L413.351 416.416Z" fill="white"/>
<path d="M289.25 371.996C290.009 371.338 290.883 370.98 291.871 370.921C292.859 370.863 293.828 371.099 294.777 371.631C295.41 371.985 295.86 372.385 296.128 372.829C296.412 373.27 296.512 373.715 296.428 374.162C296.353 374.614 296.116 375.04 295.716 375.44C295.249 375.908 294.677 376.218 294.003 376.37C293.338 376.527 292.691 376.506 292.062 376.307L292.005 376.363C292.49 376.823 292.731 377.329 292.731 377.881C292.73 378.434 292.443 378.997 291.869 379.57C291.439 380 290.93 380.321 290.341 380.533C289.759 380.737 289.128 380.801 288.448 380.726C287.768 380.651 287.088 380.423 286.409 380.043C285.422 379.49 284.82 378.829 284.602 378.06C284.391 377.283 284.633 376.489 285.328 375.678L286.557 376.366C286.17 376.855 286.028 377.352 286.132 377.858C286.237 378.364 286.615 378.799 287.266 379.164C287.918 379.529 288.547 379.669 289.154 379.585C289.777 379.499 290.308 379.237 290.745 378.8C291.311 378.234 291.486 377.696 291.269 377.186C291.053 376.677 290.474 376.159 289.534 375.632L289.213 375.452L290.073 374.592L290.408 374.78C291.272 375.252 292.032 375.501 292.688 375.528C293.352 375.546 293.918 375.322 294.386 374.854C294.786 374.454 294.943 374.042 294.859 373.618C294.784 373.2 294.448 372.824 293.853 372.49C293.276 372.167 292.689 372.027 292.094 372.07C291.499 372.114 290.965 372.321 290.493 372.692L289.25 371.996ZM305.102 379.055L300.202 376.31L297.622 378.89C298.077 378.769 298.59 378.75 299.159 378.834C299.737 378.91 300.267 379.084 300.751 379.355C301.524 379.787 302.02 380.271 302.24 380.806C302.468 381.334 302.477 381.862 302.266 382.392C302.073 382.919 301.746 383.413 301.286 383.873C300.743 384.416 300.131 384.833 299.45 385.122C298.768 385.411 298.042 385.534 297.272 385.491C296.511 385.453 295.749 385.221 294.986 384.793C294.009 384.246 293.421 383.599 293.223 382.853C293.026 382.107 293.201 381.358 293.75 380.606L294.992 381.302C294.683 381.799 294.604 382.279 294.753 382.739C294.903 383.199 295.275 383.596 295.871 383.93C296.607 384.342 297.338 384.475 298.065 384.329C298.799 384.175 299.46 383.804 300.049 383.216C300.637 382.627 300.904 382.07 300.848 381.545C300.8 381.012 300.413 380.542 299.687 380.136C299.194 379.859 298.663 379.715 298.095 379.703C297.543 379.688 297.017 379.8 296.518 380.038L295.317 379.365L299.934 374.748L306.008 378.15L305.102 379.055ZM313.87 383.965L308.969 381.22L306.389 383.8C306.845 383.679 307.357 383.66 307.927 383.744C308.504 383.82 309.035 383.994 309.519 384.265C310.291 384.697 310.788 385.181 311.008 385.716C311.235 386.244 311.244 386.772 311.034 387.302C310.841 387.829 310.514 388.323 310.054 388.783C309.511 389.326 308.898 389.743 308.217 390.032C307.536 390.321 306.81 390.444 306.04 390.401C305.279 390.363 304.517 390.131 303.753 389.703C302.776 389.156 302.188 388.509 301.991 387.763C301.793 387.017 301.969 386.268 302.517 385.516L303.76 386.212C303.451 386.71 303.371 387.189 303.521 387.649C303.67 388.109 304.043 388.506 304.639 388.84C305.374 389.252 306.105 389.385 306.832 389.239C307.566 389.085 308.228 388.714 308.816 388.126C309.405 387.537 309.671 386.98 309.616 386.455C309.568 385.922 309.181 385.452 308.455 385.046C307.961 384.769 307.43 384.625 306.862 384.613C306.31 384.598 305.785 384.71 305.285 384.948L304.085 384.275L308.701 379.658L314.775 383.06L313.87 383.965ZM310.428 390.564L311.209 389.783L321.609 387.028L323.131 387.881L317.745 393.267L319.141 394.049L318.247 394.943L316.851 394.161L315.029 395.983L313.772 395.279L315.594 393.457L310.428 390.564ZM320.855 388.283L312.788 390.491L316.544 392.594L320.855 388.283ZM335.008 395.662L323.749 400.866L322.464 400.147L333.677 395.076L328.288 392.057L329.171 391.175L335.789 394.881L335.008 395.662ZM340.901 400.745C341.533 399.793 341.314 399.017 340.244 398.418C339.416 397.954 338.536 397.867 337.606 398.158C336.684 398.442 335.635 399.179 334.46 400.368C335.066 400.096 335.725 399.988 336.437 400.046C337.166 400.101 337.838 400.301 338.452 400.645C339.411 401.182 339.933 401.851 340.018 402.651C340.112 403.457 339.733 404.287 338.881 405.139C338.368 405.652 337.782 406.042 337.123 406.308C336.474 406.58 335.777 406.696 335.033 406.656C334.298 406.621 333.577 406.406 332.87 406.009C331.911 405.472 331.335 404.879 331.142 404.23C330.95 403.581 331.052 402.89 331.449 402.16C331.846 401.429 332.493 400.614 333.391 399.716C336.159 396.948 338.735 396.231 341.118 397.565C342.03 398.076 342.547 398.678 342.668 399.369C342.79 400.061 342.592 400.738 342.074 401.402L340.901 400.745ZM337.316 401.367C336.916 401.143 336.471 401 335.981 400.938C335.499 400.868 335.011 400.906 334.516 401.053C334.038 401.197 333.606 401.461 333.221 401.846C332.648 402.419 332.385 403.002 332.433 403.593C332.488 404.177 332.897 404.683 333.66 405.11C334.312 405.475 334.991 405.602 335.697 405.492C336.419 405.379 337.06 405.043 337.618 404.485C338.207 403.896 338.481 403.332 338.44 402.792C338.407 402.244 338.033 401.769 337.316 401.367ZM343.996 402.655C344.755 401.997 345.629 401.639 346.617 401.58C347.605 401.522 348.573 401.758 349.523 402.29C350.156 402.644 350.606 403.044 350.873 403.488C351.158 403.929 351.258 404.374 351.174 404.821C351.099 405.273 350.862 405.699 350.462 406.099C349.994 406.567 349.423 406.877 348.748 407.029C348.083 407.186 347.436 407.165 346.808 406.966L346.751 407.022C347.235 407.482 347.477 407.988 347.476 408.54C347.475 409.093 347.188 409.656 346.615 410.229C346.185 410.659 345.675 410.98 345.086 411.192C344.505 411.396 343.874 411.46 343.194 411.385C342.514 411.31 341.834 411.082 341.154 410.702C340.168 410.149 339.565 409.488 339.347 408.719C339.137 407.942 339.379 407.148 340.074 406.337L341.303 407.025C340.915 407.514 340.774 408.011 340.878 408.517C340.982 409.023 341.36 409.458 342.012 409.823C342.663 410.188 343.292 410.328 343.899 410.244C344.523 410.158 345.053 409.896 345.491 409.459C346.057 408.893 346.231 408.355 346.015 407.845C345.798 407.336 345.22 406.818 344.28 406.291L343.959 406.111L344.819 405.251L345.154 405.439C346.018 405.911 346.778 406.16 347.434 406.187C348.098 406.205 348.664 405.981 349.131 405.513C349.531 405.113 349.689 404.701 349.604 404.278C349.529 403.859 349.194 403.483 348.598 403.149C348.021 402.826 347.435 402.686 346.84 402.729C346.245 402.773 345.711 402.98 345.238 403.351L343.996 402.655ZM347.639 411.403L348.419 410.622L358.82 407.867L360.342 408.719L354.955 414.106L356.352 414.888L355.458 415.782L354.061 415L352.239 416.822L350.983 416.118L352.805 414.296L347.639 411.403ZM358.066 409.122L349.999 411.33L353.755 413.433L358.066 409.122ZM359.3 419.487C361.252 419.38 362.808 419.268 363.968 419.153C365.136 419.031 366.216 418.829 367.208 418.549C368.217 418.267 368.981 417.865 369.502 417.345C369.992 416.854 370.228 416.386 370.209 415.94C370.207 415.492 369.88 415.085 369.229 414.72C368.596 414.366 367.94 414.252 367.262 414.378C366.601 414.502 365.989 414.824 365.425 415.344L364.196 414.656C365.078 413.832 366.047 413.357 367.103 413.23C368.159 413.103 369.157 413.303 370.097 413.83C371.056 414.367 371.6 415.007 371.728 415.75C371.866 416.498 371.558 417.249 370.803 418.003C370.177 418.629 369.334 419.11 368.272 419.445C367.228 419.778 366.186 420.007 365.147 420.131C364.115 420.248 362.845 420.349 361.337 420.434L366.14 423.124L365.28 423.984L358.564 420.222L359.3 419.487ZM378.521 421.813C379.153 420.861 378.934 420.085 377.864 419.486C377.035 419.022 376.156 418.935 375.226 419.226C374.303 419.51 373.255 420.247 372.079 421.436C372.686 421.164 373.345 421.056 374.057 421.114C374.786 421.169 375.458 421.369 376.072 421.713C377.031 422.25 377.553 422.919 377.638 423.719C377.732 424.525 377.353 425.355 376.501 426.207C375.988 426.72 375.402 427.11 374.743 427.376C374.094 427.648 373.397 427.764 372.653 427.724C371.918 427.689 371.197 427.474 370.49 427.077C369.531 426.541 368.955 425.947 368.762 425.298C368.569 424.649 368.671 423.959 369.068 423.228C369.465 422.497 370.113 421.682 371.01 420.785C373.779 418.016 376.355 417.299 378.738 418.633C379.65 419.144 380.167 419.746 380.288 420.437C380.41 421.129 380.211 421.807 379.693 422.47L378.521 421.813ZM374.936 422.436C374.535 422.211 374.09 422.068 373.601 422.006C373.119 421.936 372.63 421.974 372.136 422.121C371.657 422.265 371.226 422.529 370.841 422.914C370.268 423.487 370.005 424.07 370.052 424.661C370.107 425.245 370.517 425.751 371.28 426.178C371.931 426.543 372.61 426.67 373.316 426.56C374.039 426.447 374.68 426.111 375.238 425.553C375.826 424.964 376.1 424.4 376.06 423.86C376.027 423.312 375.652 422.837 374.936 422.436ZM377.036 427.866L377.817 427.086L388.217 424.331L389.739 425.183L384.353 430.569L385.749 431.351L384.855 432.245L383.459 431.463L381.637 433.285L380.381 432.581L382.202 430.759L377.036 427.866ZM387.463 425.585L379.396 427.793L383.152 429.897L387.463 425.585ZM397.894 430.88L386.634 436.084L385.35 435.364L396.563 430.293L391.174 427.275L392.056 426.392L398.675 430.099L397.894 430.88ZM399.823 436.956C401.12 435.658 402.392 434.793 403.637 434.361C404.89 433.921 406.168 434.066 407.472 434.796C408.765 435.52 409.307 436.395 409.097 437.418C408.894 438.434 408.143 439.591 406.846 440.889C405.526 442.209 404.239 443.089 402.986 443.529C401.733 443.969 400.46 443.826 399.166 443.102C397.863 442.372 397.316 441.495 397.527 440.471C397.737 439.448 398.503 438.276 399.823 436.956ZM405.589 440.185C406.246 439.529 406.744 438.943 407.085 438.428C407.443 437.91 407.594 437.418 407.538 436.951C407.491 436.49 407.156 436.084 406.532 435.735C405.899 435.381 405.276 435.249 404.662 435.34C404.057 435.437 403.468 435.684 402.896 436.082C402.341 436.477 401.736 437.003 401.079 437.659C400.4 438.338 399.882 438.936 399.524 439.454C399.176 439.977 399.025 440.469 399.072 440.93C399.128 441.397 399.472 441.808 400.105 442.162C400.729 442.512 401.343 442.638 401.948 442.541C402.562 442.45 403.15 442.203 403.713 441.8C404.285 441.402 404.91 440.864 405.589 440.185ZM405.087 445.129C407.039 445.022 408.595 444.91 409.755 444.795C410.924 444.673 412.003 444.471 412.995 444.191C414.004 443.909 414.768 443.507 415.289 442.987C415.779 442.496 416.015 442.028 415.996 441.582C415.994 441.134 415.668 440.727 415.016 440.362C414.383 440.008 413.728 439.894 413.049 440.02C412.388 440.144 411.776 440.466 411.212 440.986L409.984 440.298C410.866 439.474 411.835 438.999 412.891 438.872C413.947 438.746 414.945 438.946 415.885 439.472C416.843 440.009 417.387 440.649 417.516 441.392C417.653 442.14 417.345 442.891 416.591 443.645C415.965 444.271 415.121 444.752 414.059 445.087C413.015 445.42 411.973 445.649 410.934 445.773C409.903 445.89 408.633 445.991 407.125 446.076L411.928 448.766L411.068 449.626L404.352 445.865L405.087 445.129ZM418.54 444.401C419.299 443.744 420.173 443.386 421.161 443.327C422.149 443.268 423.117 443.505 424.067 444.037C424.7 444.391 425.15 444.79 425.418 445.234C425.702 445.676 425.802 446.12 425.718 446.568C425.643 447.02 425.406 447.446 425.006 447.846C424.538 448.314 423.967 448.623 423.292 448.775C422.627 448.932 421.98 448.911 421.352 448.712L421.295 448.769C421.779 449.228 422.021 449.734 422.02 450.287C422.019 450.84 421.732 451.403 421.159 451.976C420.729 452.406 420.219 452.727 419.63 452.938C419.049 453.142 418.418 453.207 417.738 453.132C417.058 453.057 416.378 452.829 415.698 452.449C414.712 451.896 414.109 451.235 413.891 450.466C413.681 449.689 413.923 448.895 414.618 448.083L415.847 448.772C415.459 449.261 415.318 449.758 415.422 450.264C415.526 450.769 415.904 451.205 416.556 451.569C417.207 451.934 417.836 452.075 418.443 451.991C419.067 451.905 419.597 451.643 420.035 451.205C420.601 450.639 420.775 450.102 420.559 449.592C420.342 449.083 419.764 448.565 418.824 448.038L418.503 447.858L419.363 446.998L419.698 447.186C420.562 447.658 421.322 447.907 421.978 447.933C422.642 447.952 423.208 447.727 423.675 447.26C424.075 446.86 424.233 446.448 424.149 446.024C424.073 445.606 423.738 445.229 423.142 444.896C422.565 444.573 421.979 444.433 421.384 444.476C420.789 444.519 420.255 444.726 419.782 445.097L418.54 444.401ZM434.259 451.245L423 456.449L421.715 455.73L432.929 450.659L427.539 447.641L428.422 446.758L435.04 450.464L434.259 451.245Z" fill="white"/>
<path d="M587.641 511.334L585.192 513.783L588.486 515.627L587.698 516.415L584.404 514.571L581.883 517.093L585.565 519.155L584.777 519.943L579.915 517.22L587.249 509.886L592.111 512.608L591.323 513.397L587.641 511.334ZM590.27 523.019L590.728 519.932L586.964 521.168L585.732 520.478L590.885 518.905L591.49 514.72L592.826 515.468L592.378 518.544L596.119 517.312L597.35 518.002L592.221 519.571L591.605 523.767L590.27 523.019ZM598.643 520.381C599.205 520.182 599.824 520.103 600.499 520.142C601.19 520.179 601.843 520.37 602.456 520.713C603.087 521.067 603.535 521.509 603.8 522.04C604.073 522.575 604.133 523.15 603.978 523.762C603.831 524.368 603.463 524.965 602.875 525.554C602.293 526.135 601.628 526.571 600.879 526.862C600.13 527.153 599.37 527.279 598.599 527.241C597.837 527.207 597.14 527.014 596.509 526.661C595.904 526.322 595.477 525.913 595.227 525.435C594.993 524.954 594.92 524.481 595.007 524.016L591.214 527.81L590.034 527.149L598.524 518.659L599.704 519.32L598.643 520.381ZM601.669 524.879C602.103 524.444 602.373 524.006 602.48 523.562C602.586 523.119 602.537 522.709 602.333 522.333C602.139 521.962 601.821 521.652 601.38 521.406C600.948 521.164 600.458 521.026 599.911 520.993C599.38 520.958 598.838 521.042 598.284 521.245C597.745 521.447 597.263 521.761 596.835 522.188C596.401 522.622 596.127 523.065 596.014 523.515C595.917 523.963 595.962 524.376 596.15 524.755C596.353 525.131 596.671 525.44 597.103 525.682C597.544 525.929 598.03 526.07 598.561 526.105C599.108 526.138 599.651 526.054 600.189 525.853C600.734 525.645 601.228 525.32 601.669 524.879Z" fill="white"/>
<path d="M563.079 533.609C565.031 533.501 566.587 533.39 567.747 533.275C568.916 533.152 569.995 532.951 570.987 532.671C571.996 532.388 572.76 531.987 573.281 531.466C573.771 530.976 574.007 530.508 573.988 530.062C573.986 529.614 573.66 529.207 573.008 528.842C572.375 528.488 571.72 528.374 571.041 528.5C570.38 528.624 569.768 528.946 569.204 529.466L567.976 528.778C568.858 527.954 569.827 527.478 570.883 527.352C571.939 527.225 572.937 527.425 573.877 527.952C574.835 528.489 575.379 529.129 575.508 529.871C575.645 530.619 575.337 531.37 574.583 532.125C573.957 532.751 573.113 533.232 572.051 533.567C571.007 533.9 569.965 534.129 568.926 534.253C567.895 534.37 566.625 534.47 565.117 534.556L569.92 537.245L569.06 538.105L562.344 534.344L563.079 533.609ZM571.953 537.025L572.733 536.244L583.134 533.489L584.656 534.341L579.269 539.728L580.666 540.51L579.772 541.403L578.375 540.622L576.553 542.443L575.297 541.74L577.119 539.918L571.953 537.025ZM582.38 534.744L574.313 536.952L578.068 539.055L582.38 534.744ZM594.835 536.053L578.426 546.493L577.17 545.789L593.565 535.341L594.835 536.053ZM586.532 546.743C588.483 546.635 590.04 546.524 591.2 546.409C592.368 546.287 593.448 546.085 594.44 545.805C595.448 545.523 596.213 545.121 596.734 544.6C597.224 544.11 597.46 543.642 597.441 543.196C597.439 542.748 597.112 542.341 596.461 541.976C595.828 541.622 595.172 541.508 594.494 541.634C593.833 541.758 593.22 542.08 592.657 542.6L591.428 541.912C592.31 541.088 593.279 540.612 594.335 540.486C595.391 540.359 596.389 540.559 597.329 541.086C598.288 541.623 598.832 542.263 598.96 543.005C599.098 543.753 598.79 544.505 598.035 545.259C597.409 545.885 596.565 546.366 595.504 546.701C594.46 547.034 593.418 547.263 592.379 547.387C591.347 547.504 590.077 547.605 588.569 547.69L593.372 550.38L592.512 551.24L585.796 547.478L586.532 546.743ZM605.752 549.069C606.385 548.117 606.166 547.341 605.096 546.741C604.267 546.278 603.388 546.191 602.458 546.482C601.535 546.766 600.486 547.503 599.311 548.692C599.918 548.42 600.577 548.312 601.289 548.37C602.018 548.425 602.69 548.625 603.304 548.969C604.263 549.506 604.785 550.174 604.87 550.975C604.964 551.781 604.585 552.611 603.733 553.463C603.22 553.976 602.634 554.366 601.975 554.632C601.326 554.904 600.629 555.02 599.885 554.98C599.15 554.945 598.429 554.73 597.722 554.333C596.763 553.796 596.187 553.203 595.994 552.554C595.801 551.905 595.903 551.214 596.3 550.483C596.697 549.753 597.345 548.938 598.242 548.04C601.011 545.272 603.587 544.555 605.97 545.889C606.882 546.4 607.399 547.001 607.52 547.693C607.642 548.385 607.443 549.062 606.925 549.726L605.752 549.069ZM602.167 549.691C601.767 549.467 601.322 549.324 600.833 549.262C600.351 549.192 599.862 549.23 599.367 549.377C598.889 549.521 598.458 549.785 598.073 550.17C597.5 550.743 597.237 551.326 597.284 551.917C597.339 552.501 597.748 553.007 598.512 553.434C599.163 553.799 599.842 553.926 600.548 553.816C601.271 553.703 601.912 553.367 602.47 552.809C603.058 552.22 603.332 551.656 603.292 551.116C603.259 550.568 602.884 550.093 602.167 549.691Z" fill="white"/>
</g>
<defs>
<filter id="filter0_f_6704_16" x="0.40332" y="0" width="650" height="650" filterUnits="userSpaceOnUse" color-interpolation-filters="sRGB">
<feFlood flood-opacity="0" result="BackgroundImageFix"/>
<feBlend mode="normal" in="SourceGraphic" in2="BackgroundImageFix" result="shape"/>
<feGaussianBlur stdDeviation="100" result="effect1_foregroundBlur_6704_16"/>
</filter>
<filter id="filter1_f_6704_16" x="249.034" y="173.816" width="650" height="650" filterUnits="userSpaceOnUse" color-interpolation-filters="sRGB">
<feFlood flood-opacity="0" result="BackgroundImageFix"/>
<feBlend mode="normal" in="SourceGraphic" in2="BackgroundImageFix" result="shape"/>
<feGaussianBlur stdDeviation="100" result="effect1_foregroundBlur_6704_16"/>
</filter>
<filter id="filter2_d_6704_16" x="188.898" y="197.032" width="612.42" height="461.914" filterUnits="userSpaceOnUse" color-interpolation-filters="sRGB">
<feFlood flood-opacity="0" result="BackgroundImageFix"/>
<feColorMatrix in="SourceAlpha" type="matrix" values="0 0 0 0 0 0 0 0 0 0 0 0 0 0 0 0 0 0 127 0" result="hardAlpha"/>
<feOffset dy="15"/>
<feGaussianBlur stdDeviation="30"/>
<feComposite in2="hardAlpha" operator="out"/>
<feColorMatrix type="matrix" values="0 0 0 0 0 0 0 0 0 0 0 0 0 0 0 0 0 0 0.25 0"/>
<feBlend mode="normal" in2="BackgroundImageFix" result="effect1_dropShadow_6704_16"/>
<feBlend mode="normal" in="SourceGraphic" in2="effect1_dropShadow_6704_16" result="shape"/>
</filter>
<linearGradient id="paint0_linear_6704_16" x1="0" y1="106.305" x2="392.073" y2="106.305" gradientUnits="userSpaceOnUse">
<stop stop-color="#52C234"/>
<stop offset="1" stop-color="#061700"/>
</linearGradient>
<radialGradient id="paint1_radial_6704_16" cx="0" cy="0" r="1" gradientUnits="userSpaceOnUse" gradientTransform="translate(51.22 131.497) rotate(-11.6688) scale(337.426 182.978)">
<stop stop-color="#1D976C"/>
<stop offset="0.604167" stop-color="#51CE8F"/>
<stop offset="0.892823" stop-color="#10AB53"/>
<stop offset="1" stop-color="#18D375"/>
</radialGradient>
</defs>
</svg>
