<svg width="374" height="379" viewBox="0 0 374 379" fill="none" xmlns="http://www.w3.org/2000/svg">
<path d="M59 151.167C68.0742 148.142 87.8921 146.812 94.5708 165.686C101.249 184.56 112.598 186.617 117.438 185.286" stroke="#00FFEA" stroke-width="3" stroke-linecap="round"/>
<path d="M262.626 187.388C271.7 184.363 291.518 183.032 298.197 201.907C304.875 220.781 316.224 222.838 321.064 221.507" stroke="#00FFEA" stroke-width="3" stroke-linecap="round"/>
<g filter="url(#filter0_d_6702_48)">
<path d="M180.573 123.308C183.775 119.346 189.814 119.346 193.016 123.308L199.746 131.633C201.735 134.094 204.988 135.151 208.045 134.329L218.382 131.55C223.301 130.227 228.187 133.777 228.449 138.863L229 149.554C229.163 152.715 231.174 155.482 234.129 156.613L244.126 160.441C248.883 162.262 250.749 168.006 247.971 172.275L242.133 181.248C240.407 183.901 240.407 187.321 242.133 189.974L247.971 198.947C250.749 203.216 248.883 208.96 244.126 210.781L234.129 214.609C231.174 215.74 229.163 218.508 229 221.668L228.449 232.359C228.187 237.445 223.301 240.995 218.382 239.673L208.044 236.893C204.988 236.071 201.735 237.128 199.746 239.589L193.016 247.915C189.814 251.876 183.775 251.876 180.573 247.915L173.843 239.589C171.854 237.128 168.601 236.071 165.545 236.893L155.207 239.673C150.288 240.995 145.402 237.445 145.14 232.359L144.589 221.668C144.426 218.508 142.416 215.74 139.46 214.609L129.463 210.781C124.706 208.96 122.84 203.216 125.618 198.947L131.456 189.974C133.182 187.321 133.182 183.901 131.456 181.248L125.618 172.275C122.84 168.006 124.706 162.262 129.463 160.441L139.46 156.613C142.416 155.482 144.426 152.715 144.589 149.554L145.14 138.863C145.402 133.777 150.288 130.227 155.207 131.55L165.545 134.329C168.601 135.151 171.854 134.094 173.843 131.633L180.573 123.308Z" fill="url(#paint0_linear_6702_48)"/>
</g>
<path d="M204.249 173.611L180.249 197.611L169.34 186.702" stroke="white" stroke-width="5" stroke-linecap="round" stroke-linejoin="round"/>
<path d="M266.499 116.572C266.814 114.662 269.559 114.662 269.874 116.572L270.847 122.479L276.754 123.452C278.664 123.767 278.664 126.513 276.754 126.827L270.847 127.8L269.874 133.707C269.559 135.617 266.814 135.617 266.499 133.707L265.526 127.8L259.619 126.827C257.709 126.513 257.709 123.767 259.619 123.452L265.526 122.479L266.499 116.572Z" fill="white"/>
<path d="M106.335 228.232C106.634 226.418 109.242 226.418 109.541 228.232L110.465 233.844L116.077 234.768C117.892 235.067 117.892 237.676 116.077 237.974L110.465 238.899L109.541 244.511C109.242 246.325 106.634 246.325 106.335 244.511L105.411 238.899L99.7987 237.974C97.9844 237.676 97.9844 235.067 99.7987 234.768L105.411 233.844L106.335 228.232Z" fill="white"/>
<path d="M101.222 121.339C101.442 120.002 103.364 120.002 103.585 121.339L104.266 125.474L108.401 126.155C109.738 126.376 109.738 128.298 108.401 128.518L104.266 129.199L103.585 133.334C103.364 134.671 101.442 134.671 101.222 133.334L100.541 129.199L96.4059 128.518C95.0691 128.298 95.0691 126.376 96.4059 126.155L100.541 125.474L101.222 121.339Z" fill="white"/>
<path d="M276.114 247.874C276.334 246.537 278.256 246.537 278.476 247.874L279.157 252.009L283.292 252.69C284.629 252.91 284.629 254.832 283.292 255.053L279.157 255.734L278.476 259.869C278.256 261.206 276.334 261.206 276.114 259.869L275.433 255.734L271.298 255.053C269.961 254.832 269.961 252.91 271.298 252.69L275.433 252.009L276.114 247.874Z" fill="white"/>
<circle cx="270.621" cy="164.787" r="4" fill="#FFE609"/>
<circle cx="169.34" cy="84.7374" r="4" fill="#FFE609"/>
<circle cx="225.111" cy="292.211" r="4" fill="#FFE609"/>
<circle cx="147.936" cy="267.84" r="2.5" fill="#FFE609"/>
<defs>
<filter id="filter0_d_6702_48" x="0.320312" y="0.336731" width="372.949" height="378.549" filterUnits="userSpaceOnUse" color-interpolation-filters="sRGB">
<feFlood flood-opacity="0" result="BackgroundImageFix"/>
<feColorMatrix in="SourceAlpha" type="matrix" values="0 0 0 0 0 0 0 0 0 0 0 0 0 0 0 0 0 0 127 0" result="hardAlpha"/>
<feOffset dy="4"/>
<feGaussianBlur stdDeviation="62"/>
<feComposite in2="hardAlpha" operator="out"/>
<feColorMatrix type="matrix" values="0 0 0 0 0.219608 0 0 0 0 0.937255 0 0 0 0 0.490196 0 0 0 0.5 0"/>
<feBlend mode="normal" in2="BackgroundImageFix" result="effect1_dropShadow_6702_48"/>
<feBlend mode="normal" in="SourceGraphic" in2="effect1_dropShadow_6702_48" result="shape"/>
</filter>
<linearGradient id="paint0_linear_6702_48" x1="124.32" y1="185.611" x2="249.269" y2="185.611" gradientUnits="userSpaceOnUse">
<stop stop-color="#11998E"/>
<stop offset="1" stop-color="#38EF7D"/>
</linearGradient>
</defs>
</svg>
