<svg width="4693" height="5747" viewBox="0 0 4693 5747" fill="none" xmlns="http://www.w3.org/2000/svg">
<path d="M2770.78 2580.75C2499.28 2736.18 2352.9 3271.23 2461.94 3544.76C2582.41 3846.82 3335.7 3800.94 3422.14 3727.28C3508.58 3653.63 2801.93 3417.94 2898.36 3140.01C3005.45 2831.51 3543.2 2831.09 3528.56 2699.36C3514.16 2569.74 3084.61 2401.1 2770.78 2580.75Z" stroke="#00FF85" stroke-width="5" stroke-miterlimit="10"/>
<path d="M2685.78 2542.74C2367.55 2678.19 2229.47 3325.83 2369.75 3630.94C2528.74 3976.52 3347.14 3848.43 3468.62 3793.74C3573.34 3746.67 2893.53 3429.71 2974.81 3093.87C3063.02 2728.99 3548.03 2669.73 3511.8 2585.07C3472.85 2494.31 3059.21 2384.17 2685.78 2542.74Z" stroke="#00FF85" stroke-width="5" stroke-miterlimit="10"/>
<path d="M2600.79 2504.82C2236.33 2619.87 2106.3 3380.36 2277.56 3717.04C2475.41 4106.47 3352.05 3894.83 3515.1 3860.29C3633.62 3834.89 2985.73 3441.9 3051.17 3047.56C3121.02 2626.98 3563.78 2503.63 3495.04 2471.38C3443.74 2414.23 3035.17 2367.58 2600.79 2504.82Z" stroke="#00FF85" stroke-width="5" stroke-miterlimit="10"/>
<path d="M2515.79 2466.55C2105.36 2562.05 1983.37 3434.54 2185.62 3802.97C2422.66 4235.41 3368.56 4002.34 3561.83 3926.57C3682.89 3879.08 3078.52 3453.93 3127.79 3001.34C3179.68 2525.05 3574.28 2339.82 3478.53 2357.34C3408.51 2336.43 3011.04 2351.5 2515.79 2466.55Z" stroke="#00FF85" stroke-width="5" stroke-miterlimit="10"/>
<path d="M2430.78 2428.79C1974.56 2504.98 1860.61 3489.06 2093.17 3889.41C2369.49 4365.19 3363.05 4053.48 3608.05 3993.29C3745.53 3959.42 3171.04 3466.54 3203.97 2955.45C3237.84 2423.46 3593.4 2197.67 3461.5 2243.64C3377.02 2273.02 2987.08 2335.84 2430.78 2428.79Z" stroke="#00FF85" stroke-width="5" stroke-miterlimit="10"/>
<path d="M2345.88 2390.78C1843.77 2448.09 1737.95 3543.41 2000.98 3975.51C2316.84 4494.55 3359.08 4013.94 3654.62 4060.16C3807.77 4083.95 3264.18 3479.24 3280.43 2909.57C3297.36 2322.04 3606.37 2029.88 3444.75 2130.11C3344.18 2192.08 2963.21 2320.43 2345.88 2390.78Z" stroke="#00FF85" stroke-width="5" stroke-miterlimit="10"/>
<path d="M2260.89 2352.85C1712.98 2391.29 1615.37 3597.34 1908.71 4061.69C2264.28 4623.82 3362.72 4048.82 3701.02 4126.28C3866.53 4164.21 3357.22 3491.34 3356.71 2863.09C3356.2 2219.69 3616.61 1862.43 3427.91 2015.83C3309.56 2112.08 2939.34 2305.19 2260.89 2352.85Z" stroke="#00FF85" stroke-width="5" stroke-miterlimit="10"/>
<path d="M2175.88 2314.84C1582.16 2334.65 1493.02 3651.77 1816.5 4147.87C2211.52 4753.1 3367.28 4082.43 3747.48 4192.83C3925.77 4244.55 3450.5 3503.53 3433.14 2816.95C3415.45 2118.01 3626.17 1696.32 3411.13 1901.96C3274.32 2032.67 2915.29 2290.2 2175.88 2314.84Z" stroke="#00FF85" stroke-width="5" stroke-miterlimit="10"/>
<path d="M2090.89 2276.83C1451.37 2278.1 1370.27 3705.95 1724.31 4234.05C2158.95 4882.37 3372.62 4115.53 3793.97 4259.45C3985.46 4324.89 3543.88 3515.98 3509.51 2770.9C3474.72 2016.25 3635.57 1530.98 3394.38 1788.09C3238.77 1953.77 2891.5 2275.3 2090.89 2276.83Z" stroke="#00FF85" stroke-width="5" stroke-miterlimit="10"/>
<path d="M2005.89 2238.9C1320.15 2221.97 1247.77 3760.05 1632.12 4320.15C2106.21 5011.48 3378.63 4147.7 3840.44 4325.82C4045.48 4404.9 3637.26 3528.17 3585.87 2724.67C3534.06 1914.32 3645.13 1365.82 3377.53 1674.06C3203.13 1875.12 2867.54 2260.57 2005.89 2238.9Z" stroke="#00FF85" stroke-width="5" stroke-miterlimit="10"/>
<path d="M1920.89 2200.89C1189.61 2165.25 1125.1 3814.15 1539.93 4406.33C2053.97 5140.66 3385.49 4179.79 3886.92 4392.37C4105.76 4484.98 3730.81 3540.45 3662.32 2678.53C3593.49 1812.39 3654.36 1201.07 3360.77 1560.19C3167.41 1796.64 2843.5 2245.93 1920.89 2200.89Z" stroke="#00FF85" stroke-width="5" stroke-miterlimit="10"/>
<path d="M1835.89 2162.88C1058.72 2108.86 1002.93 3868.24 1447.73 4492.52C2001.57 5269.77 3392 4211.62 3933.39 4458.65C4166.12 4564.98 3824.27 3552.8 3738.68 2632.14C3652.92 1710.29 3663.76 1036.24 3344 1446.07C3131.76 1718.25 2819.45 2231.28 1835.89 2162.88Z" stroke="#00FF85" stroke-width="5" stroke-miterlimit="10"/>
<path d="M1750.9 2124.95C927.766 2052.57 880.526 3922.68 1355.55 4578.61C1949.17 5398.87 3399.21 4243.37 3979.97 4525.36C4226.83 4645.24 3917.91 3564.91 3815.14 2586.17C3712.36 1607.43 3673.16 871.916 3327.25 1332.12C3096.05 1639.94 2795.42 2216.8 1750.9 2124.95Z" stroke="#00FF85" stroke-width="5" stroke-miterlimit="10"/>
<path d="M1665.91 2086.94C796.8 1996.27 758.111 3976.35 1263.27 4664.8C1896.77 5528.31 3406.74 4275.37 4026.36 4591.9C4287.53 4725.41 4011.46 3577.1 3891.5 2540.03C3771.88 1506.6 3682.65 707.593 3310.4 1218.42C3060.32 1561.71 2771.38 2202.24 1665.91 2086.94Z" stroke="#00FF85" stroke-width="5" stroke-miterlimit="10"/>
<path d="M1580.89 2048.93C665.818 1939.97 637.034 4029.43 1171.32 4750.98C1846.3 5655.81 3414.77 4306.52 4073.08 4658.36C4348.56 4805.58 4105.33 3589.29 3968.1 2493.89C3831.63 1404.67 3692.37 543.186 3293.88 1104.47C3024.58 1483.49 2747.15 2187.85 1580.89 2048.93Z" stroke="#00FF85" stroke-width="5" stroke-miterlimit="10"/>
<path d="M1495.91 2011C534.861 1883.76 514.543 4083.53 1078.88 4836.99C1793.48 5785.17 3422.32 4337.51 4119.31 4724.74C4409.27 4885.59 4198.72 3601.31 4044.22 2447.42C3890.99 1302.32 3701.61 378.61 3276.87 990.185C2988.86 1405.27 2723.04 2173.38 1495.91 2011Z" stroke="#00FF85" stroke-width="5" stroke-miterlimit="10"/>
<path d="M1410.91 1972.99C403.471 1827.54 391.957 4137.71 986.685 4923.26C1740.91 5913.77 3430.27 4369.51 4165.79 4791.36C4470.56 4966.01 4294.39 3613.42 4120.58 2401.53C3952.53 1200.39 3711.09 214.625 3260.11 876.657C2953.14 1327.13 2698.82 2158.98 1410.91 1972.99Z" stroke="#00FF85" stroke-width="5" stroke-miterlimit="10"/>
<path d="M1325.92 1934.98C272.509 1773.19 269.377 4191.9 894.497 5009.44C1688.34 6043.47 3438.41 4401 4212.36 4857.9C4531.27 5046.19 4387.6 3625.61 4197.03 2355.39C4011.72 1098.46 3720.57 50.4742 3243.27 762.708C2917.42 1248.99 2674.28 2146.96 1325.92 1934.98Z" stroke="#00FF85" stroke-width="5" stroke-miterlimit="10"/>
<path d="M1240.91 1897.05C141.527 1716.56 146.945 4245.99 802.288 5095.63C1635.67 6172.65 3446.6 4432.41 4258.82 4924.45C4592.29 5126.44 4480.88 3637.63 4273.38 2309.25C4070.88 996.535 3730.13 -113.765 3226.49 648.841C2881.42 1171.27 2650.13 2132.06 1240.91 1897.05Z" stroke="#00FF85" stroke-width="5" stroke-miterlimit="10"/>
<path d="M1155.91 1859.04C10.5632 1659.92 24.2779 4300.17 710.098 5181.72C1583.1 6301.59 3454.99 4463.9 4305.3 4990.9C4653.42 5206.7 4574.6 3650.08 4349.75 2263.37C4129.63 894.86 3738.26 -278.595 3209.73 535.145C2844.94 1092.12 2626.01 2117.08 1155.91 1859.04Z" stroke="#00FF85" stroke-width="5" stroke-miterlimit="10"/>
<path d="M1070.92 1821.03C-120.394 1603.03 -98.5523 4354.44 617.915 5267.91C1530.54 6431.03 3463.38 4495.4 4351.79 5057.11C4714.64 5286.7 4667.48 3661.93 4426.2 2216.64C4189.24 792.591 3748.51 -442.495 3192.98 420.939C2809.73 1014.4 2602.06 2102.52 1070.92 1821.03Z" stroke="#00FF85" stroke-width="5" stroke-miterlimit="10"/>
<path d="M3176.13 307.073C2774.51 936.595 2577.67 2087.19 985.921 1783.1C-251.451 1546.65 -220.889 4408.45 525.631 5354.09C1477.96 6560.31 3471.76 4526.89 4398.26 5123.9C5147.49 5606.79 4350.6 -1534 3176.13 307.073Z" stroke="#00FF85" stroke-width="5" stroke-miterlimit="10"/>
</svg>
