<svg width="1952" height="1458" viewBox="0 0 1952 1458" fill="none" xmlns="http://www.w3.org/2000/svg">
<g opacity="0.5" filter="url(#filter0_f_1_31131)">
<path d="M1652 373.742V1084.26C1652 1124.99 1619.02 1158 1578.33 1158H373.665C336.991 1158 306.575 1131.17 300.947 1096.04C300.325 1092.21 300 1088.27 300 1084.26V373.742C300 333.011 332.981 300 373.665 300H1578.33C1582.34 300 1586.27 300.316 1590.1 300.939C1625.18 306.581 1652 337.024 1652 373.742Z" fill="#77939A"/>
</g>
<path d="M1524 210.291V945.359C1524 987.498 1489.85 1021.65 1447.72 1021.65H200.281C162.304 1021.65 130.808 993.89 124.981 957.549C124.337 953.584 124 949.511 124 945.359V210.291C124 168.151 158.151 134 200.281 134H1447.72C1451.87 134 1455.93 134.327 1459.9 134.971C1496.23 140.808 1524 172.304 1524 210.291Z" fill="url(#paint0_radial_1_31131)"/>
<mask id="mask0_1_31131" style="mask-type:alpha" maskUnits="userSpaceOnUse" x="124" y="134" width="1400" height="888">
<path d="M1524 210.291V945.359C1524 987.498 1489.85 1021.65 1447.72 1021.65H200.281C162.304 1021.65 130.808 993.89 124.981 957.549C124.337 953.584 124 949.511 124 945.359V210.291C124 168.151 158.151 134 200.281 134H1447.72C1451.87 134 1455.93 134.327 1459.9 134.971C1496.23 140.808 1524 172.304 1524 210.291Z" fill="url(#paint1_radial_1_31131)"/>
</mask>
<g mask="url(#mask0_1_31131)">
<path d="M890.439 860.695C912.589 841.765 945.169 824.805 992.389 812.675C1154.21 771.095 1164.43 894.455 1161.29 949.705C1152.5 836.945 1081.6 817.955 1009.7 822.165C967.159 824.655 926.269 838.215 890.439 860.695Z" fill="url(#paint2_linear_1_31131)"/>
<path d="M-83.261 1056.33C-83.011 1056.34 -82.751 1056.36 -82.491 1056.37C101.519 1065.69 180.299 909.925 209.459 824.995C227.659 771.975 263.409 726.565 311.269 697.385C469.349 601.035 518.939 817.945 640.359 887.655C657.889 897.715 676.929 904.715 697.999 907.255C722.699 910.235 745.159 909.485 765.539 905.925C845.999 891.885 894.149 834.075 920.199 788.675C951.729 733.765 1011.45 700.635 1074.65 704.515C1188.76 711.515 1207.36 826.715 1196.33 923.915C1194.3 941.755 1191.28 959.005 1187.66 974.845C1179.31 976.915 1170.82 978.495 1162.18 979.635C1162.33 968.995 1162.03 959.025 1161.29 949.705C1152.5 836.945 1081.6 817.955 1009.7 822.165C967.159 824.655 926.269 838.215 890.439 860.695C880.759 866.755 871.439 873.475 862.559 880.805C848.639 892.295 831.329 904.905 811.349 916.085C752.409 949.065 670.329 969.555 584.209 911.625C579.269 908.305 574.309 904.725 569.339 900.865C562.289 895.395 555.349 890.355 548.499 885.715C498.869 852.065 454.559 839.455 417.059 838.045C359.589 835.885 304.829 861.955 268.759 906.745C260.559 916.925 252.359 926.595 244.179 935.795C230.029 951.695 215.929 966.155 201.969 979.325C140.019 1037.72 80.6789 1070.52 31.5389 1088.82C-43.8611 1116.91 -95.271 1110.9 -95.271 1110.9C-95.271 1110.9 -334.221 1043.73 -83.261 1056.33Z" fill="#6B2B76"/>
<path opacity="0.81" d="M-83.261 1056.33C-83.011 1056.34 -82.751 1056.36 -82.491 1056.37C101.519 1065.69 180.299 909.925 209.459 824.995C227.659 771.975 263.409 726.565 311.269 697.385C492.179 587.125 530.999 887.125 697.999 907.255C820.179 921.975 887.549 845.575 920.199 788.675C951.729 733.765 1011.45 700.635 1074.65 704.515C1188.76 711.515 1207.36 826.715 1196.33 923.915C1197.46 903.565 1197.74 886.665 1196.25 869.545C1193.47 837.705 1184.75 789.665 1165.58 762.825C1146.41 735.985 1058.22 650.355 906.119 830.565C742.029 1025 550.599 877.425 456.869 765.805C409.999 709.995 359.839 712.765 321.389 729.485C285.869 744.935 262.599 768.575 243.559 810.045C103.269 1115.67 -80.791 1062.33 -80.791 1062.33C-80.791 1062.33 -81.721 1060.09 -83.261 1056.33Z" fill="#66226B"/>
<path d="M38.619 759.201C37.989 760.781 37.199 763.181 36.279 766.081C75.409 690.261 263.839 611.162 274.349 735.562C275.719 751.622 274.109 771.071 268.839 794.351C247.869 886.911 252.989 931.232 266.559 949.602C278.039 965.152 295.559 962.131 308.489 954.051C319.019 939.971 326.269 927.362 326.269 927.362C316.589 941.712 287.419 958.062 270.909 935.642C257.409 917.322 252.379 873.051 273.449 780.551C278.749 757.291 280.389 737.861 279.059 721.821C268.499 594.011 69.849 681.611 38.629 759.201H38.619Z" fill="url(#paint3_radial_1_31131)"/>
<path d="M42.969 984.032C42.679 979.932 42.529 975.842 42.549 971.772C12.8589 990.992 -17.061 999.592 -46.621 1000.1C-59.401 987.702 -73.331 975.502 -88.481 963.572C-103.231 951.962 -114.881 942.082 -123.881 933.592C-141.791 916.722 -149.251 905.362 -149.981 896.892C-134.221 882.032 -90.371 874.992 -77.931 833.312C-77.911 833.262 -77.9011 833.231 -77.8911 833.191C-75.7011 829.231 -73.8311 824.881 -72.3911 820.071C-69.7211 811.151 -67.081 803.272 -64.461 796.362L-64.441 796.321C-44.751 754.491 -24.981 766.192 2.63898 809.962C12.949 826.312 21.519 807.602 27.279 790.802C30.999 783.042 34.039 773.132 36.279 766.082C69.519 701.672 210.509 634.892 258.619 692.522C267.159 702.732 272.769 716.842 274.349 735.562C275.719 751.622 274.109 771.072 268.839 794.352C257.169 845.872 253.579 882.451 255.039 907.921C256.189 928.211 260.539 941.452 266.559 949.602C278.039 965.142 295.559 962.131 308.489 954.041C304.079 959.941 299.079 966.091 293.809 971.681C277.699 988.761 258.899 1000.65 245.689 984.112C239.899 976.882 235.169 964.202 232.209 944.132C231.589 939.902 230.929 935.822 230.229 931.872C227.719 917.692 224.749 905.271 221.379 894.441C206.509 846.611 183.959 829.791 160.309 829.521C124.799 829.101 86.779 865.972 68.439 891.162C59.289 903.722 52.7989 916.922 48.6089 930.582C44.5089 943.932 42.609 957.722 42.559 971.772C42.539 975.842 42.689 979.932 42.969 984.032Z" fill="url(#paint4_radial_1_31131)"/>
<path d="M42.549 971.771C42.649 943.341 50.339 916.011 68.439 891.161C86.779 865.971 124.799 829.101 160.309 829.521C183.959 829.791 206.509 846.611 221.379 894.441C198.429 851.141 165.289 853.741 136.219 870.771C114.959 883.211 95.879 903.361 84.559 918.911C76.389 930.131 70.409 941.881 66.349 954.011C58.439 960.731 50.509 966.631 42.559 971.771H42.549Z" fill="url(#paint5_radial_1_31131)"/>
<path d="M38.619 759.201C37.989 760.781 37.199 763.181 36.279 766.081C75.409 690.261 263.839 611.162 274.349 735.562C275.719 751.622 274.109 771.071 268.839 794.351C247.869 886.911 252.989 931.232 266.559 949.602C278.039 965.152 295.559 962.131 308.489 954.051C319.019 939.971 326.269 927.362 326.269 927.362C316.589 941.712 287.419 958.062 270.909 935.642C257.409 917.322 252.379 873.051 273.449 780.551C278.749 757.291 280.389 737.861 279.059 721.821C268.499 594.011 69.849 681.611 38.629 759.201H38.619Z" fill="#5C2680"/>
<path d="M-10.084 1131.04C80.136 1041.55 272.236 909.184 512.426 882.964C849.756 846.144 1104.71 1066.8 1277.59 930.684C1372.97 855.584 1316.99 771.404 1434.37 659.724C1567.07 533.474 1768.45 517.554 1918.29 546.104C1933.05 548.914 1947.31 552.164 1960.95 555.774C2103.44 593.504 2240.74 687.814 2228.5 727.894C2219.44 757.554 2133.61 740.594 2029.12 751.744C2003.4 754.494 1979.46 758.634 1956.99 763.954C1745.49 813.964 1664.89 967.984 1470.16 1043.15C1242.56 1131.02 1169.7 991.244 803.836 986.924C770.796 986.534 738.476 987.284 706.906 989.024C250.556 1014.11 -48.584 1245.07 -65.274 1211.86C-70.164 1202.13 -50.194 1170.82 -10.084 1131.04Z" fill="#603285"/>
<path opacity="0.33" d="M-10.084 1131.04C80.136 1041.55 272.236 909.184 512.426 882.964C849.756 846.144 1104.71 1066.8 1277.59 930.684C1372.97 855.584 1316.99 771.404 1434.37 659.724C1567.07 533.474 1768.45 517.554 1918.29 546.104L1910.25 587.724C1910.25 587.724 1705.48 495.214 1471.22 736.714C1434.58 774.494 1404.05 817.674 1379.51 864.234C1356.04 908.774 1297.66 979.614 1161.74 988.574C1112.61 991.814 1063.31 986.014 1016.03 972.234C913.496 942.354 616.006 867.284 386.316 925.574C104.286 997.144 -6.48407 1136.46 -6.48407 1136.46L-10.084 1131.04Z" fill="#4A1F66"/>
<path opacity="0.41" d="M706.906 989.024C794.576 973.794 961.696 958.004 1113.99 1018.44C1332.98 1105.35 1538.32 1005.66 1632.9 912.364C1727.48 819.064 1945.61 715.964 1945.61 715.964L1956.99 763.954C1745.49 813.964 1664.89 967.984 1470.16 1043.15C1242.56 1131.02 1169.7 991.244 803.836 986.924C770.796 986.534 738.476 987.284 706.906 989.024Z" fill="#3E2850"/>
<path d="M1153.14 1039.62C1156.97 1040.67 1160.76 1041.7 1164.52 1042.73C1151.85 1063.28 1136.18 1076.64 1119.67 1083.96C1078.39 1102.29 1031.79 1082.96 1013.03 1044C1006.98 1031.44 1004.93 1017.7 1006.56 1004.36C1008.18 990.99 1013.5 978.02 1022.18 967.05C1022.36 966.82 1022.55 966.58 1022.75 966.33C1024.25 964.46 1025.85 962.55 1027.55 960.61C1040.03 946.45 1057.99 931.08 1082.52 921.01C1092.15 917.06 1102.79 913.92 1114.52 912C1114.52 912 1097.45 938.93 1084.91 970.2C1078.5 986.13 1073.28 1003.19 1072.09 1018.37C1070.4 1039.74 1076.7 1057.4 1098.94 1063.03C1117.31 1067.67 1139.37 1061.56 1153.14 1039.62Z" fill="url(#paint6_radial_1_31131)"/>
<path d="M1022.18 967.05C1022.36 966.82 1022.55 966.58 1022.75 966.33C1035.25 950.74 1054.64 932.45 1082.52 921.01C1092.15 917.06 1102.79 913.92 1114.52 912C1010.29 940.97 1020.8 1055.43 1077.48 1075.99C1091.68 1081.14 1104.72 1089.02 1119.04 1084.18C1119.25 1084.11 1119.46 1084.03 1119.67 1083.96C1078.39 1102.29 1031.79 1082.96 1013.03 1044C1000.91 1018.84 1004.85 988.95 1022.18 967.05Z" fill="#5C2680"/>
<path d="M726.673 806.299C741.213 797.309 755.993 790.569 770.013 788.069C768.733 788.649 767.443 789.249 766.163 789.859C641.913 849.269 601.013 1006.46 678.773 1120.12C689.653 1136.03 702.803 1152.21 718.603 1168.5C749.663 1200.53 790.954 1233 845.404 1264.72C793.254 1240.49 752.283 1214.46 720.223 1187.86C702.763 1173.37 687.943 1158.7 675.413 1144.06C585.843 1039.45 609.553 878.759 726.673 806.299Z" fill="#5C2680"/>
<path d="M766.164 789.859C767.444 789.249 768.733 788.649 770.013 788.069C811.403 780.659 846.134 810.139 848.144 927.489C848.254 934.089 848.504 940.909 848.904 947.909C850.724 979.889 855.633 1015.57 864.713 1051.11C874.223 1088.32 888.303 1125.39 908.213 1157.93C908.213 1157.93 908.213 1157.94 908.223 1157.94C935.733 1202.9 974.354 1239.19 1027.37 1255.24C1027.7 1255.34 1028.03 1255.44 1028.36 1255.54C1034.09 1257.24 1039.71 1256.18 1044.13 1253.34C1045.25 1252.63 1046.29 1251.8 1047.24 1250.86C1050.97 1247.23 1053.24 1242.09 1052.98 1236.44C1058.45 1232.33 1063.89 1228.21 1069.3 1224.08C1091.92 1206.79 1114.13 1189.36 1136.9 1172.51C1156.13 1237.7 1149.48 1276.49 1131.09 1298.97C1089.85 1349.36 989.594 1317.74 989.594 1317.74C975.644 1313.68 962.193 1309.52 949.223 1305.26C910.463 1292.54 876.004 1278.94 845.404 1264.72C790.954 1233 749.663 1200.53 718.603 1168.5C702.803 1152.21 689.653 1136.03 678.773 1120.12C601.013 1006.46 641.914 849.269 766.164 789.859Z" fill="url(#paint7_radial_1_31131)"/>
</g>
<path d="M226.752 307V253.36H249.432C253.128 253.36 256.296 253.984 258.936 255.232C261.576 256.48 263.592 258.28 264.984 260.632C266.376 262.936 267.072 265.744 267.072 269.056C267.072 271.408 266.424 273.664 265.128 275.824C263.832 277.936 261.696 279.712 258.72 281.152V275.68C261.552 276.784 263.736 278.104 265.272 279.64C266.808 281.176 267.864 282.856 268.44 284.68C269.016 286.456 269.304 288.328 269.304 290.296C269.304 295.576 267.552 299.68 264.048 302.608C260.544 305.536 255.672 307 249.432 307H226.752ZM237.912 297.28H250.728C252.984 297.28 254.784 296.632 256.128 295.336C257.472 294.04 258.144 292.36 258.144 290.296C258.144 288.184 257.472 286.48 256.128 285.184C254.784 283.888 252.984 283.24 250.728 283.24H237.912V297.28ZM237.912 273.52H250.224C251.952 273.52 253.32 273.04 254.328 272.08C255.384 271.072 255.912 269.752 255.912 268.12C255.912 266.488 255.384 265.192 254.328 264.232C253.32 263.224 251.952 262.72 250.224 262.72H237.912V273.52Z" fill="white"/>
<path d="M286.903 307L305.047 253.36H319.879L338.023 307H325.855L322.255 296.056H302.599L298.999 307H286.903ZM305.695 286.336H319.159L310.951 260.992H313.975L305.695 286.336Z" fill="white"/>
<path d="M357.997 307V253.36H366.565L395.365 291.304L390.757 292.384V253.36H401.917V307H393.277L364.981 268.768L369.157 267.688V307H357.997Z" fill="white"/>
<path d="M425.835 307V253.36H436.995V280.216L433.899 279.136L455.355 253.36H469.323L448.083 278.992L448.731 271.072L469.755 307H456.723L443.619 284.32L436.995 292.312V307H425.835Z" fill="white"/>
<defs>
<filter id="filter0_f_1_31131" x="0" y="0" width="1952" height="1458" filterUnits="userSpaceOnUse" color-interpolation-filters="sRGB">
<feFlood flood-opacity="0" result="BackgroundImageFix"/>
<feBlend mode="normal" in="SourceGraphic" in2="BackgroundImageFix" result="shape"/>
<feGaussianBlur stdDeviation="150" result="effect1_foregroundBlur_1_31131"/>
</filter>
<radialGradient id="paint0_radial_1_31131" cx="0" cy="0" r="1" gradientUnits="userSpaceOnUse" gradientTransform="translate(824 152.5) rotate(90) scale(1251.5 1089.73)">
<stop stop-color="#7B00A6"/>
<stop offset="1" stop-color="#320030"/>
</radialGradient>
<radialGradient id="paint1_radial_1_31131" cx="0" cy="0" r="1" gradientUnits="userSpaceOnUse" gradientTransform="translate(921.25 542.25) rotate(38.5445) scale(795.59 1254.8)">
<stop stop-color="#5C007D"/>
<stop offset="1" stop-color="#790075"/>
</radialGradient>
<linearGradient id="paint2_linear_1_31131" x1="1161.72" y1="876.985" x2="890.439" y2="876.985" gradientUnits="userSpaceOnUse">
<stop stop-color="#FF6601"/>
<stop offset="0.9" stop-color="#FCAE30"/>
</linearGradient>
<radialGradient id="paint3_radial_1_31131" cx="0" cy="0" r="1" gradientUnits="userSpaceOnUse" gradientTransform="translate(217.186 785.016) rotate(-148.73) scale(144.45 144.45)">
<stop offset="0.44" stop-color="#BA068B"/>
<stop offset="1" stop-color="#7A00C9"/>
</radialGradient>
<radialGradient id="paint4_radial_1_31131" cx="0" cy="0" r="1" gradientUnits="userSpaceOnUse" gradientTransform="translate(79.259 835.322) rotate(180) scale(199.62 199.62)">
<stop offset="0.44" stop-color="#8C3676"/>
<stop offset="1" stop-color="#622888"/>
</radialGradient>
<radialGradient id="paint5_radial_1_31131" cx="0" cy="0" r="1" gradientUnits="userSpaceOnUse" gradientTransform="translate(131.969 900.641) rotate(180) scale(80.79 80.79)">
<stop offset="0.44" stop-color="#6D205D"/>
<stop offset="1" stop-color="#602C8A"/>
</radialGradient>
<radialGradient id="paint6_radial_1_31131" cx="0" cy="0" r="1" gradientUnits="userSpaceOnUse" gradientTransform="translate(1147 1119.5) rotate(-120.216) scale(203.672 319.889)">
<stop offset="0.44" stop-color="#8C3676"/>
<stop offset="1" stop-color="#622888"/>
</radialGradient>
<radialGradient id="paint7_radial_1_31131" cx="0" cy="0" r="1" gradientUnits="userSpaceOnUse" gradientTransform="translate(945 1149) rotate(-141.504) scale(355.843 525.44)">
<stop offset="0.44" stop-color="#8C3676"/>
<stop offset="1" stop-color="#622888"/>
</radialGradient>
</defs>
</svg>
